<svg width="311" height="199" viewBox="0 0 311 199" fill="none" xmlns="http://www.w3.org/2000/svg">
<g opacity="0.3" clip-path="url(#clip0_1_11555)">
<path d="M83.0299 102.79C84.6599 104.38 86.3799 106.99 88.7499 107.55C91.1099 108.11 93.1899 106.38 95.4999 106.36C96.2799 106.52 96.9599 105.89 96.4399 104.43C95.5999 102.07 93.8499 95.7201 87.2999 96.6801C87.2499 96.6901 87.2799 96.7601 87.3199 96.7701C89.6499 97.0601 90.7699 98.3901 91.6099 100.03C91.5399 99.9501 91.4799 99.8601 91.3999 99.7901C90.2099 98.5101 88.5899 97.2501 86.8099 97.0801C86.7999 97.0801 86.7899 97.1001 86.8099 97.1001C87.8499 97.3901 88.5499 98.0401 89.1099 98.8201C88.6399 98.5101 88.1299 98.2701 87.6099 98.1101C87.5799 98.1001 87.5699 98.1401 87.5899 98.1501C88.2599 98.5901 88.8399 99.1001 89.3799 99.6401C89.3599 99.6301 89.3499 99.6201 89.3299 99.6101C88.4099 99.0101 87.3099 98.2001 86.1599 98.2301C86.1399 98.2301 86.1299 98.2601 86.1499 98.2701C87.0599 98.7801 87.5099 99.6101 88.0199 100.43C87.5399 100.18 87.0499 99.9501 86.5799 99.7601C86.5199 99.7401 86.4799 99.8201 86.5199 99.8601C86.8799 100.2 87.2999 100.51 87.7399 100.81C86.8799 100.47 85.9899 100.2 85.0399 100.01C85.0199 100.01 85.0199 100.03 85.0299 100.03C86.7799 100.66 88.3499 101.68 89.8599 102.77C89.8499 102.77 89.8499 102.77 89.8399 102.76C89.0999 102.48 88.4299 102.15 87.7599 101.75C87.3699 101.51 87.1899 101.37 86.7599 101.33C86.7499 101.33 86.7399 101.35 86.7499 101.35C87.6399 101.73 88.2699 102.56 89.0899 103.11C88.9399 103.06 88.7899 103.01 88.6499 102.94C87.3299 102.36 86.3199 100.9 84.7499 101.11C84.7199 101.11 84.7199 101.15 84.7399 101.16C86.3599 101.74 86.5899 103.51 87.8899 104.46C87.9499 104.5 88.0099 104.53 88.0699 104.57C88.0499 104.56 88.0399 104.56 88.0199 104.55C86.8899 104 86.2199 102.91 85.0999 102.37C85.0799 102.36 85.0499 102.39 85.0699 102.41C86.0099 103.24 86.6199 104.27 87.6599 104.99C86.1499 104.39 84.8999 103.31 83.6699 102.27C83.6599 102.26 83.6399 102.27 83.6499 102.29C84.5499 103.38 85.5799 104.52 86.7299 105.41C85.3899 104.65 84.1299 103.56 83.0499 102.76C83.0399 102.73 83.0099 102.77 83.0299 102.79Z" fill="#EBDBC2"/>
<path d="M165.17 92.54C164.07 97.13 169.61 101.35 173.4 97.92C175.49 96.02 175.32 93.02 173.96 91.06C174.32 91.13 174.67 91.22 175 91.36C176.92 92.15 178.31 94.01 179.1 96.09C179.03 96.18 178.96 96.27 178.9 96.37C178.68 96.74 178.24 98.58 178.28 98.35C177.98 99.78 177.72 101.21 177.34 102.63C176.16 107.08 174.48 111.39 172.75 115.65C162.57 140.62 143.38 162.32 119.87 175.56C110.17 181.02 99.9499 184.88 89.4399 187.36C99.9899 184.06 110.04 179.2 119.18 172.7C125.23 168.81 130.77 164.13 135.57 158.45C137.38 156.31 139.04 154.07 140.57 151.74C148.92 140.27 154.38 126.72 154.26 112.43C154.14 99.29 149.1 86.1 139.92 77.09C136.97 73.73 133.43 70.89 129.26 68.78C115.94 62.05 96.3999 62.97 85.2199 73.34C84.4499 74.05 83.6799 75.08 83.1499 76.18C80.7499 77.48 77.8599 77.76 75.0999 76.85C73.9799 76.48 72.7799 75.8 71.9199 74.87C75.4799 75.63 79.5499 71.34 77.9299 67.38C75.8399 62.27 68.8399 63.17 66.9699 67.91C65.0199 72.86 69.3199 77.68 74.0099 78.67C74.8699 78.85 75.7299 78.94 76.5699 78.93C72.1999 80.94 68.9299 85.28 68.8099 90.12C68.6199 90.97 68.3999 92.85 68.3699 92.99C68.2199 93.58 68.3799 94.25 68.8199 94.68C69.2299 95.09 71.2199 94.85 72.3799 94.91C75.4999 94.99 78.2699 95.86 81.0799 94.61C80.9599 94.73 80.8699 94.9 80.8699 95.12C80.8699 96.12 82.4799 96.12 82.4799 95.12C82.4799 94.55 81.9699 94.32 81.5199 94.4C81.7999 94.25 82.0799 94.09 82.3599 93.9C83.5099 93.1 84.3899 92.12 84.9799 91.01C85.2399 91.58 85.5399 92.15 85.8699 92.7C85.7599 101.26 78.9599 103.32 71.7899 103.01C76.1099 102.8 80.4999 101.69 82.8999 98.85C82.9099 98.84 82.8899 98.82 82.8799 98.83C79.4999 102.41 73.2499 102.27 67.9699 101.95C76.0999 101.38 86.4299 100.77 85.1799 91.53C85.1799 91.5 85.1299 91.51 85.1299 91.54C84.2099 102.63 71.1799 98.59 62.8599 98.5C62.7199 90.76 63.5599 79.6 73.4399 79.76C73.4699 79.76 73.4699 79.72 73.4499 79.71C66.1999 77.58 63.2099 83.27 61.2099 89.39C61.2099 89.37 61.2099 89.34 61.2199 89.32C61.5099 86.77 62.9499 84.49 64.1199 82.25C64.1299 82.24 64.1099 82.22 64.0999 82.24C63.3899 83.26 62.5699 84.26 61.8499 85.32C62.1599 84.47 62.5599 83.63 63.0999 82.82C64.4199 80.84 68.4899 77.19 71.1799 78.58C71.2099 78.59 71.2299 78.55 71.2099 78.54C68.0999 76.49 63.0099 80.42 61.2899 82.86C60.0099 84.67 59.4699 86.75 59.1499 88.92C58.7399 91.63 58.2199 94.78 58.0899 97.74C57.4499 99.9 56.9599 102.45 58.1499 104.06C58.9299 105.11 60.8799 104.67 61.9999 104.61C62.3099 104.59 62.6399 104.58 62.9699 104.57C68.8499 104.97 74.8499 106.08 80.2899 103.11C84.0799 101.05 86.5299 97.21 86.0199 92.93C88.2299 95.67 94.5499 95.32 97.1199 92.71C100.35 89.42 98.0899 83.24 93.1799 83.91C90.3099 84.3 88.8199 86.64 88.8399 88.9C88.4999 88.52 88.2199 88.1 88.0099 87.67C87.1299 85.86 87.2999 83.57 88.0099 81.5C90.4599 80.26 92.6099 77.14 94.3199 75.84C102.08 69.94 112.81 67.98 122.25 69.92C122.62 70 122.97 70.09 123.32 70.18C125.45 70.86 127.51 71.72 129.47 72.75C133.27 74.77 136.53 77.31 139.29 80.24C148.56 91.22 151.63 108.37 150.14 121.93C150.05 122.79 149.93 123.64 149.8 124.49C149.17 127.53 148.31 130.5 147.21 133.34C130.69 176.13 79.1499 194.54 36.7199 187.55C23.7799 185.42 11.5799 181.45 -0.020116 175.9L-0.0201162 181.41C22.0699 191.24 47.2299 194.91 71.1499 191.46C72.9399 191.33 74.7299 191.16 76.5199 190.95C109.68 187.03 138.96 169.51 160.26 144.13C167.79 135.15 175.1 125.2 180.43 114.74C182.33 111.01 187.11 102.96 186.17 97.71C187.3 94.8 189.77 92.53 192.94 91.61C193.96 91.31 195.09 91.25 196.13 91.49C192.72 93.06 191.83 98.75 195.77 101.01C200.53 103.74 205.53 98.77 204.15 93.9C202.77 89.02 196.78 87.67 192.55 89.44C191.49 89.88 190.54 90.47 189.7 91.15C191.86 86.86 191.65 81.54 188.77 77.56C187.66 75.96 185.93 73.34 184.54 74.53C183.85 74.88 179.04 78.02 176.7 82.16C175.75 83.84 175.32 86.45 175.92 88.12C175.84 88.08 175.77 88.03 175.68 87.99C171.73 86.15 166.25 88.01 165.17 92.54ZM84.5299 89.84C83.8299 90.73 82.8999 91.39 81.8099 91.8C82.3499 91.43 82.8599 90.97 83.3399 90.37C83.6899 89.93 83.9999 89.48 84.2599 89.01C84.3499 89.3 84.4299 89.57 84.5299 89.84ZM83.8599 86.85C83.1899 87.85 82.2899 88.69 81.2099 89.26C80.5799 89.59 79.9499 89.78 79.3199 89.91C79.7899 89.54 80.2499 89.15 80.6599 88.77C81.8499 87.68 83.4599 86.19 83.8099 84.51C83.7499 85.27 83.7699 86.05 83.8599 86.85ZM84.3299 81.6C84.1199 82.31 83.8499 85.68 80.0999 87.08C80.8799 86.37 81.5499 85.54 82.1499 84.66C82.1599 84.65 82.1399 84.64 82.1299 84.65C80.9999 85.72 79.7499 86.75 78.3099 87.37C78.3199 87.36 78.3199 87.36 78.3299 87.35C80.1099 85.82 81.7799 84.27 82.7899 82.12C82.8699 81.96 82.6499 81.83 82.5499 81.98C80.7799 84.48 78.1499 85.65 75.5099 86.97C76.1699 86.32 76.9099 85.79 77.6699 85.24C79.3499 84.03 80.8699 82.67 82.2899 81.16C82.3199 81.13 82.2799 81.08 82.2399 81.11C80.2399 82.66 78.1099 83.92 75.9899 85.3C75.8099 85.42 75.6099 85.55 75.4199 85.69C75.6499 85.34 75.9099 85.01 76.2099 84.68C77.8799 82.87 80.1599 81.77 81.8599 79.99C82.0299 79.81 81.8099 79.55 81.5999 79.66C79.6099 80.67 77.1999 81.65 75.0899 82.96C75.1099 82.94 75.1199 82.92 75.1399 82.9C76.4999 81.59 78.0399 80.44 79.6599 79.48C79.6699 79.47 79.6599 79.45 79.6499 79.46C78.2599 80.11 76.4399 80.95 74.8199 82.03C76.0199 80.57 77.5499 79.39 79.2899 78.63C80.0999 78.16 82.4099 77.37 82.7799 77.14C82.2099 78.86 82.4199 80.63 84.3299 81.6ZM181.69 92.33C180.92 90.54 181.18 88.77 181.88 87.04C181.72 88.08 181.72 89.14 181.79 90.18C181.79 90.19 181.81 90.2 181.81 90.18C182.01 88.77 182.32 87.35 182.93 86.05C182.6 88.24 182.41 90.42 182.88 92.58C182.91 92.74 183.16 92.7 183.16 92.54C183.05 89.68 184.14 87.3 185.27 84.85C185.19 85.61 185.09 86.36 184.9 87.09C184.38 89.04 184.05 90.99 183.88 92.99C183.88 93.03 183.94 93.04 183.95 93C184.54 90.62 185.37 88.37 186.14 86.05C186.23 85.77 186.32 85.48 186.4 85.19C186.44 85.92 186.41 86.66 186.3 87.43C185.98 89.54 185.21 91.53 184.96 93.66C184.94 93.87 185.27 93.95 185.35 93.77C186.43 91.39 187.69 89.13 188.43 86.79C188.21 88.8 187.67 90.78 186.99 92.67C186.99 92.68 187.01 92.69 187.01 92.68C187.73 91.24 188.58 89.52 189.13 87.75C189.08 89.69 188.57 91.63 187.62 93.35C187.34 93.74 186.32 95.02 185.93 96.74C185.62 95.86 185.11 95.09 184.34 94.47C183.26 93.6 182.1 93.61 181.03 94.47C181.64 93.98 180.73 94.6 180.57 94.73C180.5 94.79 180.43 94.84 180.37 94.89C179.13 91.33 178.69 88.3 179.75 85.9C180.03 85.27 180.38 84.76 180.76 84.29C180.59 85.01 180.46 85.73 180.37 86.44C180.1 88.47 179.75 91.08 181.59 92.45C181.65 92.52 181.73 92.4 181.69 92.33ZM177.56 84.49C177.42 85 177.31 85.54 177.29 86.14C177.25 87.32 177.4 88.43 177.74 89.47C177.45 89.18 177.14 88.92 176.8 88.68C176.54 87.21 176.84 85.77 177.56 84.49Z" fill="#EBDBC2"/>
<path d="M65.2498 70.61C65.2698 70.64 65.3098 70.61 65.2898 70.58C62.4398 65.37 54.6498 62.15 48.9198 64.22C43.4598 66.2 41.7098 71.9 43.4098 76.94C35.8698 78.59 34.4598 87.05 38.6598 92.88C35.0698 94.56 34.7398 100.47 35.2598 104.05C35.8098 107.83 37.4598 111.23 39.1398 114.62C41.0398 118.46 44.2798 126.56 43.4298 130.58C42.9198 133.02 45.2398 132.53 46.2898 132.16C50.3798 130.14 54.8098 129.1 59.3898 129.48C62.7298 129.76 65.5998 131.04 68.9598 130.17C73.1198 129.08 76.4098 126.15 77.8198 122.22C80.6198 125.03 84.1798 127.26 88.0598 124.69C91.8898 122.15 92.1998 117.64 91.5698 113.5C95.0398 114.45 98.6198 112.73 99.8398 109C101.03 105.37 99.7498 102.23 97.5198 99.72C95.4998 98.19 95.9098 99.76 96.0198 99.77C97.1998 101.4 98.0098 103.25 98.0798 105.37C98.1598 107.93 96.6398 110.68 94.1098 111.49C93.2798 111.75 91.8498 111.89 90.9198 111.47C90.2098 111.15 89.5698 111.72 89.6898 112.42C90.9898 117.32 89.6098 120.85 88.0898 121.7C89.9798 119.16 89.8098 115.5 89.2998 112.44C89.2998 112.43 89.2698 112.43 89.2798 112.44C89.7098 115.98 89.5598 121.04 85.5698 122.52C83.3698 123.33 81.8298 122.38 80.1498 121.07C79.7298 120.74 78.7498 119.98 77.9898 119.4C77.4798 118.92 76.4898 119.21 76.3398 119.91C75.4398 124.25 72.1098 127.49 67.6998 128.19C64.6998 128.67 61.6598 127.46 58.6198 127.3C58.4898 127.29 58.3598 127.3 58.2298 127.29C58.4998 127.26 58.7698 127.23 59.0398 127.21C61.9198 127.03 64.8698 127.65 67.7398 127.2C72.1498 126.52 74.6098 123.65 76.0198 119.56C76.0198 119.55 75.9998 119.54 75.9998 119.55C73.8998 123.75 71.1298 126.55 66.2698 126.72C63.5898 126.82 60.9198 126.35 58.2298 126.46C54.1598 126.63 50.3798 127.65 46.6898 129.28C46.9098 125.3 45.8598 121.64 44.2398 117.95C42.1398 113.15 33.7398 99.21 41.2698 95.07C41.2798 95.06 41.2698 95.04 41.2598 95.05C36.3098 96.99 37.4798 102.32 38.7698 106.46C40.0698 110.65 42.2898 114.75 43.8298 118.96C43.7198 118.71 43.6098 118.47 43.5098 118.25C41.8298 114.58 39.6098 111.12 38.3398 107.27C37.4298 104.49 35.5898 94.84 40.5798 94.57C41.4998 94.52 42.0098 93.43 41.3398 92.74C41.2298 92.63 41.1398 92.5 41.0298 92.38C40.9298 92.17 40.7998 91.94 40.6398 91.61C39.8098 89.96 39.2298 88.34 39.1698 86.47C39.0598 82.86 41.5398 79.66 45.1098 79.09C45.1198 79.09 45.1198 79.06 45.1098 79.07C42.4198 79.27 40.2398 80.91 39.1898 83.41C38.6398 84.71 38.4898 85.99 38.5998 87.24C37.9598 83.29 39.7698 79.29 44.7998 78.72C45.5698 78.63 46.0198 77.94 45.6598 77.21C45.4398 76.75 45.2698 76.28 45.1198 75.82C44.5498 64.73 58.5698 62.96 64.9898 70.84C64.9998 70.85 65.0198 70.83 65.0098 70.82C61.8098 66.68 55.9298 64.09 50.7098 65.86C47.6398 66.9 45.5698 69.37 44.7498 72.26C45.1698 68.58 48.0898 65.61 52.3098 65.06C56.9798 64.45 62.5798 66.61 65.2498 70.61ZM98.3498 107.74C99.0198 104.72 97.9698 102.02 96.2298 99.75C97.4798 100.72 98.1198 101.56 98.5098 102.62C99.7098 105.95 98.4698 110.72 95.4498 111.99C96.8998 110.93 98.0298 109.22 98.3498 107.74Z" fill="#EBDBC2"/>
<path d="M18.1598 44.4801C17.4298 52.6601 17.7598 60.8801 17.5398 69.0701C17.2998 78.0801 15.9298 86.8601 13.8498 95.6201C13.8398 95.6501 13.8898 95.6601 13.8998 95.6301C15.6298 88.1001 17.2898 80.7201 17.7998 72.9801C18.3598 64.6401 18.0798 56.2701 18.6898 47.9401C19.8598 31.9001 25.1598 16.7401 39.4098 7.9201C52.0498 0.100097 70.4598 -1.4399 82.0798 9.1101C82.0598 9.0901 82.0298 9.0801 82.0098 9.0601C68.9198 0.210097 51.2098 1.7901 38.5098 10.5201C25.0498 19.7801 20.4798 34.7201 19.7998 50.3801C19.4098 59.4101 19.9698 68.4601 19.3698 77.4901C18.7498 86.7001 16.2898 95.4201 12.3598 103.76C9.20983 110.44 5.07985 116.74 -0.000150296 122.11L-0.000150374 123.9C11.4699 112.65 18.6099 96.6401 20.8098 80.9801C24.0498 57.9601 17.8398 28.9201 40.4798 13.9101C50.6898 7.1401 64.3398 5.4801 75.4898 11.0301C87.2398 16.8901 94.9198 30.6501 88.4298 43.0601C84.7598 50.0801 77.5698 53.9901 69.9398 55.1601C67.5898 55.5201 65.0298 55.7401 62.6698 55.3901C60.6298 55.0901 58.5298 54.2601 56.9398 52.9201C56.0498 52.1701 55.2398 51.2201 54.6698 50.1601C60.2098 52.8401 66.8098 47.0001 64.9598 40.8501C62.4898 32.6101 51.4098 33.6301 48.0098 40.5501C42.1998 52.3401 56.4698 60.8301 66.4698 60.4501C76.4698 60.0701 86.1798 55.6301 91.5598 46.9501C96.6298 38.7801 96.7198 29.7501 93.1498 21.9801C92.7298 20.5001 92.2398 19.1401 91.7098 18.0001C80.9398 -5.1899 49.7598 -4.2699 32.7499 11.1101C23.1799 19.7601 19.2898 31.9301 18.1598 44.4801Z" fill="#EBDBC2"/>
<path d="M33.0498 27.46C20.5698 42.65 24.9598 64.31 21.1498 82.22C21.1398 82.25 21.1898 82.26 21.1998 82.23C25.0198 67.15 23.0298 50.8 29.5298 36.37C33.0198 28.63 39.0898 22.78 47.1098 19.91C55.2198 17.01 63.8298 17.38 68.3898 25.67C68.6298 26.11 68.9998 26.32 69.3798 26.37C69.5598 26.47 69.7598 26.54 69.9998 26.51C77.1898 25.54 77.5398 16.19 72.9398 11.9C67.0098 6.38002 57.0598 8.38002 50.2498 10.59C50.2198 10.6 50.2298 10.65 50.2598 10.64C55.9198 9.21002 62.5398 8.49002 68.0198 11.08C70.8098 12.4 72.8098 15.02 73.2198 17.66C70.2498 9.04002 56.5798 8.81002 49.2598 11.53C38.2398 15.62 30.3498 24.63 26.1498 35.4C26.1398 35.43 26.1898 35.44 26.1998 35.41C29.8798 26.38 36.9498 18.15 45.8898 14C50.8598 11.69 57.0498 10.5 62.3998 12.17C63.7498 12.59 64.8198 13.09 65.6898 13.69C64.6798 13.23 63.6498 12.86 62.6798 12.62C56.9398 11.21 50.8098 12.57 45.5898 15.1C31.9298 21.74 26.8398 33.91 23.7698 47.99C23.7598 48.02 23.8098 48.03 23.8198 48C26.3398 37.16 30.2998 26.69 39.7598 20.07C46.5798 15.3 63.8998 10.69 68.2098 20.51C58.7798 10.77 40.8798 17.93 33.0498 27.46Z" fill="#EBDBC2"/>
<path d="M77.1399 16.26C77.1199 16.23 77.0799 16.26 77.0999 16.29C78.5299 19.65 80.9499 24.67 79.3799 28.41C78.2699 31.06 75.6899 32.1 74.1399 34.18C73.1699 35.49 73.0699 36.86 73.2099 38.27C72.5099 40.05 72.3399 41.91 73.7199 43.47C73.6399 44.23 73.4299 44.99 73.0099 45.75C72.9299 45.85 72.8699 45.96 72.8299 46.08C72.8299 46.08 72.8299 46.09 72.8199 46.09C72.7499 46.2 72.8899 46.94 73.1599 47.13C75.9299 49.02 80.2799 46.33 82.4999 44.55C85.3399 42.28 87.3099 39.07 88.0499 35.51C89.4699 28.72 85.7799 18.64 79.0299 15.85C79.0099 15.84 78.9899 15.88 79.0099 15.89C83.7399 19.56 86.9099 25.66 87.1399 31.69C87.2799 35.32 85.7599 39.26 83.1999 41.83C83.9099 40.59 84.4799 39.36 84.8399 38.39C86.9999 32.59 86.0299 26.52 82.9899 21.27C82.9699 21.24 82.9299 21.27 82.9499 21.3C85.6199 26.55 85.9099 32.39 83.0299 37.64C82.7399 38.17 82.4199 38.64 82.0899 39.09C83.0999 37.02 83.6999 34.74 83.8199 32.32C84.0399 27.59 82.8699 19.06 78.3199 16.35C78.1899 16.27 78.0799 16.47 78.1999 16.55C82.4099 19.54 83.1399 28.3 82.2699 33.01C81.7899 35.6 80.7699 37.91 79.2199 39.82C79.4499 39.14 79.6899 38.46 79.9699 37.81C80.8299 35.83 81.6599 33.89 81.9799 31.73C82.6099 27.42 81.5699 23.32 79.4099 19.61C79.3899 19.58 79.3499 19.61 79.3699 19.64C80.9999 22.83 81.4699 25.85 81.0499 28.78C80.9899 28.37 80.8799 27.96 80.6899 27.52C80.6799 27.5 80.6499 27.51 80.6499 27.53C80.5899 28.27 80.3899 28.88 80.0999 29.42C81.8199 25.06 79.3799 20.1 77.1399 16.26Z" fill="#EBDBC2"/>
<path d="M16.0098 74.97C15.6798 62.27 11.2799 48.45 1.64986 39.76C1.29986 39.45 0.939853 39.21 0.579853 39.04C0.329853 38.46 0.139867 37.86 -0.000133514 37.25L-0.000134041 49.3C7.37987 56.69 12.2299 65.6 12.9299 76.51C13.7199 88.96 9.35985 101.62 2.29985 111.76C1.55985 112.82 0.789863 113.83 -0.000136906 114.83L-0.000137007 117.16C1.26986 115.71 2.48986 114.18 3.64986 112.55C11.4699 101.65 16.3598 88.49 16.0098 74.97Z" fill="#EBDBC2"/>
<path d="M-0.000174695 27.0102L-0.000174943 32.6802C0.039825 32.5102 0.0698105 32.3402 0.10981 32.1601C0.42981 30.9001 1.17982 29.5002 2.23982 28.5302C1.50981 32.1002 5.86981 36.2002 9.82981 34.4702C14.8198 32.3002 13.9298 25.4402 9.23982 23.5501C5.60982 22.1001 2.03983 24.0302 -0.000174695 27.0102Z" fill="#EBDBC2"/>
<path d="M66.8198 77.5902C66.8198 77.6202 66.8598 77.6202 66.8698 77.5902C67.6398 69.9102 59.3598 68.1402 52.5698 68.6902C51.6098 68.7702 51.0198 69.6502 51.0198 70.5602C51.3198 74.0902 51.6998 76.8302 53.5998 79.3402C55.1498 81.3902 57.9498 83.3602 60.4098 81.7002C60.4298 81.6902 60.4198 81.6502 60.3998 81.6502C57.8898 81.8202 56.0898 80.5702 54.9198 78.7302C55.0198 78.8402 55.1098 78.9602 55.2198 79.0702C56.9398 80.7202 59.3398 81.0602 61.6098 81.2802C61.6198 81.2802 61.6298 81.2602 61.6098 81.2602C59.3598 80.7102 57.5098 79.7502 56.2798 78.2202C57.7098 79.3902 59.3998 79.9902 61.1498 80.4802C61.1698 80.4802 61.1698 80.4602 61.1598 80.4602C59.5398 79.8802 57.9598 78.9902 56.7698 77.7202C56.4198 77.3502 56.1098 76.9502 55.8398 76.5202C55.9798 76.6502 56.1098 76.7702 56.2398 76.8702C57.9598 78.3402 60.0698 79.5802 62.1698 80.4202C62.1998 80.4302 62.2298 80.3802 62.1998 80.3602C60.5598 78.9002 58.7498 77.7602 57.4998 75.9002C57.3198 75.6302 57.1698 75.3202 57.0398 75.0002C57.4998 75.5002 57.9598 76.0102 58.4398 76.5002C59.7698 77.8702 61.0998 79.0102 62.9798 79.5202C63.0498 79.5402 63.0798 79.4502 63.0298 79.4102C61.3298 78.2502 59.8798 76.8002 58.5298 75.2502C58.7698 75.3902 59.0098 75.5202 59.2298 75.6602C60.8298 76.6702 62.3698 77.7402 63.8598 78.9002C63.8698 78.9102 63.8898 78.8902 63.8798 78.8802C62.6098 77.6002 61.2898 76.3602 59.8598 75.2502C59.4498 74.9302 59.0098 74.5602 58.5498 74.2102C61.0098 75.2402 63.1398 76.6302 64.9898 78.5702C65.0298 78.6102 65.0898 78.5602 65.0598 78.5102C63.7698 76.3702 62.1098 74.4402 60.0498 73.0002C60.3798 73.1102 60.7098 73.2402 61.0098 73.4002C62.6598 74.3102 64.5098 76.0902 65.4598 77.7102C65.4698 77.7202 65.4898 77.7102 65.4798 77.7002C64.6998 75.9302 63.1398 74.1402 61.6198 72.9702C61.4998 72.8802 61.3598 72.7902 61.2298 72.6902C63.5798 73.6202 65.6798 75.1802 66.2698 77.8002C66.2698 77.8102 66.2898 77.8102 66.2898 77.8002C66.0898 75.5002 64.6198 73.5802 62.6398 72.2402C64.8798 73.1402 66.5798 74.6502 66.8198 77.5902Z" fill="#EBDBC2"/>
<path d="M58.7599 85.4501C57.0099 83.2401 54.5999 81.6801 51.7299 81.5201C48.4399 81.3301 46.4999 82.7201 43.8699 84.4201C43.0799 84.9301 42.6999 86.1801 43.1299 86.8901C44.3799 88.9201 47.6699 92.1401 49.7999 93.0301C52.6199 94.2201 55.4099 93.3901 57.4399 91.1801C57.4599 91.1601 57.4399 91.1301 57.4199 91.1401C55.8199 91.5701 54.2799 92.2001 52.5999 91.9801C51.9299 91.8901 51.3299 91.6701 50.7699 91.3801C53.2499 91.9701 55.8499 91.4501 58.0099 90.0701C58.0299 90.0601 58.0199 90.0201 57.9899 90.0301C56.1399 90.7301 54.2199 90.9801 52.3499 90.6201C53.5899 90.5201 54.8399 90.2301 55.9399 90.0301C55.9499 90.0301 55.9499 90.0001 55.9399 90.0101C53.8099 90.2601 51.9299 90.1001 49.9299 89.7701C49.8999 89.7501 49.8699 89.7301 49.8499 89.7201C52.5599 90.1501 55.4999 89.7901 58.0099 88.9501C58.0199 88.9501 58.0199 88.9301 58.0099 88.9301C56.0999 88.9101 54.3099 89.0201 52.4699 88.3801C51.9699 88.2101 51.4799 88.0201 50.9799 87.8401C52.7199 88.3501 54.8599 88.2801 56.4499 88.3801C56.4599 88.3801 56.4699 88.3601 56.4499 88.3601C55.1599 88.1901 53.8899 87.9401 52.6199 87.6501C52.2199 87.5601 51.8199 87.4301 51.4199 87.2901C53.7299 87.4301 56.0099 87.7801 58.2699 88.2401C58.2799 88.2401 58.2899 88.2201 58.2799 88.2201C56.5599 87.4801 54.8099 86.9001 53.0099 86.4601C54.7199 86.3601 56.4799 86.5801 57.8199 87.3001C57.8499 87.3101 57.8699 87.2801 57.8399 87.2601C56.5099 86.3501 54.9999 86.0701 53.4199 86.0301C55.1599 85.9801 56.8999 86.1801 58.4599 86.9901C58.4799 87.0001 58.5099 86.9701 58.4899 86.9501C56.8899 85.2401 53.5299 84.6701 51.3299 84.3501C51.2499 84.3401 51.1499 84.3301 51.0699 84.3201C53.7899 83.9701 56.4799 84.7001 58.7899 86.1301C58.7999 86.1401 58.8199 86.1201 58.8099 86.1101C56.7699 84.3801 54.4199 83.4401 51.7299 83.3101C51.3499 83.2901 50.8999 83.2701 50.4099 83.2801C53.4599 82.5901 56.4099 83.5101 58.7499 85.5201C58.7499 85.5101 58.7799 85.4801 58.7599 85.4501Z" fill="#EBDBC2"/>
<path d="M56.6999 97.04C54.3999 95.49 51.4699 94.58 48.7299 95.48C46.4999 96.22 43.1599 98.19 41.8899 100.22C41.2999 101.17 41.6099 102.43 42.5399 102.48C46.7599 103.9 52.9699 109.94 56.6399 104.12C56.6499 104.1 56.6299 104.08 56.6099 104.09C54.8399 104.44 53.7199 105.38 51.7099 104.87C51.3199 104.77 50.9399 104.61 50.5599 104.43C50.8499 104.48 51.1199 104.51 51.3799 104.54C53.5399 104.77 55.4999 104.2 57.1199 102.76C57.1299 102.75 57.1199 102.73 57.0999 102.74C55.3599 103.87 53.4899 103.92 51.6499 103.47C53.1399 103.29 54.6299 102.81 55.9399 102.39C55.9499 102.39 55.9499 102.36 55.9299 102.37C54.4899 102.62 53.0199 102.91 51.5599 102.98C51.0199 103.01 50.4899 102.98 49.9699 102.93C49.7599 102.85 49.5499 102.76 49.3399 102.67C49.2999 102.65 49.2499 102.63 49.2099 102.61C50.2699 102.6 51.3399 102.55 52.4499 102.51C54.1999 102.44 55.6799 102.31 57.1599 101.32C57.1699 101.31 57.1599 101.29 57.1499 101.3C55.7499 101.91 54.2899 101.94 52.8199 101.7C53.7799 101.64 54.7199 101.49 55.5899 101.31C55.6199 101.3 55.6099 101.26 55.5799 101.26C54.4399 101.38 53.3299 101.38 52.1899 101.29C51.3799 101.23 50.5799 101.05 49.7799 100.94C49.5299 100.86 49.2799 100.78 49.0299 100.71C49.3499 100.66 49.6499 100.62 49.9399 100.61C52.3699 100.53 54.7699 101.12 57.0799 100.16C57.0899 100.15 57.0899 100.13 57.0699 100.14C55.6199 100.45 54.1999 100.2 52.7799 99.89C53.8499 99.93 54.9299 99.86 55.9899 99.73C56.0099 99.73 56.0099 99.7 55.9899 99.7C54.3499 99.79 52.7699 99.57 51.1799 99.29C51.3099 99.28 51.4399 99.26 51.5699 99.26C53.4199 99.16 55.1899 99.34 56.9799 98.81C56.9899 98.81 56.9899 98.79 56.9799 98.79C56.0599 98.87 54.6599 98.57 53.1499 98.26C53.8199 98.25 54.4899 98.25 55.1499 98.26C55.1799 98.26 55.1799 98.22 55.1499 98.21C53.9199 98.08 52.6599 97.95 51.3999 97.92C51.2199 97.89 51.0299 97.86 50.8499 97.83C52.9199 97.47 55.0099 97.54 57.1699 98.05C57.2099 98.06 57.2299 98 57.1999 97.99C55.5699 97.25 53.4999 96.64 51.4199 96.45C53.0999 96.3 54.8099 96.64 56.6899 97.07C56.7099 97.09 56.7299 97.05 56.6999 97.04Z" fill="#EBDBC2"/>
<path d="M57.6199 105.85C57.6399 105.84 57.6299 105.8 57.5999 105.8C55.3299 106.54 53.5899 108 52.4299 110.12C50.8899 112.94 52.0999 115.77 51.0199 118.59C50.2199 120.68 52.7499 121.45 53.5599 120.43C54.8599 118.8 57.3599 118.99 59.1399 118.09C60.4399 117.44 61.5199 116.48 62.1799 115.17C63.4399 112.67 63.0399 109.11 61.5199 106.81C61.4999 106.79 61.4699 106.8 61.4699 106.83C62.3699 109.95 61.8499 114.41 58.6899 115.88C59.1199 115.41 59.4799 114.93 59.7499 114.55C61.3399 112.3 61.7599 109.63 60.6999 107.07C60.6899 107.06 60.6699 107.06 60.6799 107.08C61.3499 109.66 60.3899 112.2 58.5299 114C59.6599 112.48 60.5499 110.9 60.5899 108.81C60.5899 108.79 60.5699 108.8 60.5699 108.81C60.3699 110.36 59.7499 111.72 58.7599 112.86C59.6299 110.83 60.0099 108.59 60.1899 106.4C60.1899 106.39 60.1699 106.38 60.1699 106.4C59.5999 108.78 58.5299 110.82 57.1199 112.8C56.8699 113.15 56.5699 113.49 56.2599 113.83C56.4899 113.29 56.7199 112.77 56.9499 112.3C58.0099 110.21 59.0699 108.14 59.4699 105.82C59.4699 105.81 59.4499 105.8 59.4499 105.81C58.3199 108.37 56.6799 110.42 55.0899 112.69C55.1499 112.52 55.2099 112.35 55.2799 112.19C56.2299 110.01 57.7699 108.24 58.7999 106.12C58.8099 106.11 58.7899 106.09 58.7799 106.11C57.4599 108.16 55.5499 109.65 54.3299 111.75C55.0499 109.38 56.4599 107.6 58.2999 105.86C58.3099 105.85 58.2999 105.83 58.2799 105.84C56.0899 107.42 54.0899 109.01 53.0699 111.59C53.7299 109.14 55.4399 107.18 57.6199 105.85Z" fill="#EBDBC2"/>
<path d="M79.2798 105.33C79.2698 105.33 79.2598 105.35 79.2798 105.35C82.0798 105.78 83.1398 107.71 83.4398 109.96C82.9598 108.33 81.9098 106.88 80.2998 106.07C80.2898 106.06 80.2798 106.08 80.2898 106.09C81.6098 106.94 82.6798 108.84 83.0798 110.34C83.1498 110.62 83.1898 110.89 83.2098 111.16C82.9898 110.49 82.7798 109.83 82.3998 109.2C81.4498 107.64 80.0198 106.43 78.3998 105.62C78.3898 105.61 78.3798 105.63 78.3898 105.64C80.5098 107.18 81.0798 108.97 81.4798 111.16C81.3398 110.91 81.2098 110.67 81.0698 110.43C80.0198 108.68 78.8398 107.17 77.0698 106.12C77.0598 106.11 77.0398 106.13 77.0498 106.14C78.4198 107.36 79.1898 108.92 79.8998 110.54C79.8798 110.52 79.8698 110.5 79.8498 110.48C79.2898 109.75 78.7598 109.01 78.2898 108.21C78.2798 108.2 78.2598 108.21 78.2698 108.22C78.7998 109.46 79.5198 110.87 80.5098 111.91C80.5598 112.01 80.5998 112.12 80.6498 112.22C80.1398 111.68 79.6398 111.14 79.1598 110.57C78.1398 109.36 77.6198 108.01 76.7698 106.71C76.7598 106.7 76.7398 106.71 76.7498 106.72C77.3698 108.24 77.5498 109.9 78.1798 111.43C78.2498 111.6 78.3398 111.77 78.4198 111.94C76.9698 110.55 76.1298 108.65 76.1998 106.52C76.1998 106.51 76.1798 106.5 76.1798 106.52C75.8798 108.63 76.2698 110.69 77.5298 112.44C77.8098 112.83 78.1198 113.17 78.4598 113.49C77.5998 113.03 76.7998 112.46 76.2998 111.68C75.3598 110.21 75.5198 108.03 75.5298 106.35C75.5298 106.32 75.4898 106.32 75.4798 106.34C75.0898 108.7 74.5998 111.26 76.1998 113.27C78.1098 115.67 81.3298 116.17 83.4198 118.19C85.1498 119.86 86.7098 119.19 86.3198 117.52C85.8398 115.45 86.6398 113.44 86.4798 111.36C86.3798 110.05 85.9898 108.75 85.3398 107.6C84.2798 105.73 82.6998 104.6 80.5298 104.95C80.5098 104.95 80.5098 104.99 80.5298 105C82.5398 105.36 83.7798 106.8 84.3498 108.54C83.4298 106.64 81.8198 105.26 79.2798 105.33Z" fill="#EBDBC2"/>
<path d="M71.9998 119.7C72.8898 118.19 73.5998 116.62 74.1298 114.91C74.9898 112.13 73.7298 108.54 71.2498 107C71.1998 106.97 71.1598 107.04 71.1898 107.07C72.2098 108.2 72.9298 109.9 73.1398 111.43C73.2398 112.18 73.1998 112.84 73.0598 113.44C73.2298 111 72.4698 109.14 70.7498 107.29C70.7398 107.28 70.7198 107.29 70.7298 107.31C72.0498 109.16 72.4398 111.08 72.0298 113.12C71.9598 111.52 71.5398 109.92 71.0298 109C71.0198 108.99 70.9998 109 71.0098 109.01C71.6598 110.5 71.5798 112.15 71.3498 113.73C71.3198 113.91 71.2698 114.07 71.2298 114.24C71.2598 111.97 70.7898 109.62 69.9498 107.75C69.8998 107.63 69.7298 107.72 69.7598 107.83C70.0498 109.22 70.0098 110.55 69.7798 111.85C69.7698 110.83 69.6098 109.82 69.3398 108.82C69.3298 108.8 69.2898 108.8 69.2898 108.83C69.4098 109.92 69.3598 110.94 69.2298 111.95C69.0898 110.35 68.8198 108.76 68.3098 107.17C68.3098 107.15 68.2798 107.16 68.2898 107.18C68.5498 108.43 68.6598 109.66 68.6698 110.88C68.5098 109.94 68.3098 109.06 68.1098 108.32C68.1098 108.31 68.0898 108.31 68.0898 108.32C67.8798 109.87 67.8598 111.45 67.7798 113.01C67.6098 112.6 67.4498 112.19 67.3398 111.76C66.9298 110.23 67.1398 108.77 67.4998 107.26C67.5098 107.21 67.4398 107.17 67.4098 107.22C66.6598 108.93 66.1898 110.44 66.4498 112.34C66.5698 113.23 66.8098 114.09 66.9598 114.97C65.7998 112.31 65.6298 109.94 66.7598 106.9C66.7698 106.89 66.7398 106.88 66.7398 106.89C65.6898 108.82 64.6998 110.99 64.9998 113.21C64.4498 111.24 64.6098 109.24 66.0698 106.94C66.0798 106.92 66.0498 106.89 66.0298 106.91C64.4298 108.91 63.1998 111.25 63.6898 113.9C63.9698 115.39 64.7598 116.71 65.3998 118.06C66.0098 119.35 66.4698 121.54 67.0798 122.24C67.2798 122.86 69.9198 123.27 71.9998 119.7Z" fill="#EBDBC2"/>
<path d="M69.7799 83.4102C70.2799 83.3602 70.4899 82.2502 69.9199 81.8202C69.3499 81.3902 68.3599 81.6802 68.3599 82.5702C68.3599 83.4002 69.1999 83.6702 69.7799 83.4102Z" fill="#EBDBC2"/>
<path d="M68.9799 85.68C68.9799 83.68 66.1499 83.93 66.3099 85.68C66.4599 87.43 68.9799 87.16 68.9799 85.68Z" fill="#EBDBC2"/>
<path d="M65.1198 89.56C65.3898 91.35 67.8498 90.86 67.5398 88.67C67.0798 87.46 64.8498 87.77 65.1198 89.56Z" fill="#EBDBC2"/>
<path d="M66.0298 94.6002C66.0398 94.6002 66.0498 94.6002 66.0598 94.5902C66.1398 94.5702 66.2298 94.5402 66.3098 94.5002C66.6198 94.3602 66.8698 94.1102 66.9998 93.7602C67.0098 93.7202 67.0298 93.6902 67.0398 93.6502C67.2098 93.1802 66.9298 92.5902 66.5098 92.3502C66.0498 92.0802 65.4998 92.1902 65.1098 92.5302C65.0598 92.5702 65.0099 92.6102 64.9599 92.6602C64.0199 93.4802 65.0298 94.7902 66.0298 94.6002Z" fill="#EBDBC2"/>
<path d="M64.7799 96.1201C64.7799 98.1201 67.4999 98.1201 67.4999 96.1201C67.4999 94.1201 64.7799 94.1201 64.7799 96.1201Z" fill="#EBDBC2"/>
<path d="M71.2699 97.59C71.6399 96.78 71.2099 95.77 70.2299 95.77C69.2499 95.77 68.8099 96.78 69.1899 97.59C69.1999 97.61 69.2099 97.63 69.2199 97.66C69.5799 98.42 70.8899 98.44 71.2399 97.66C71.2499 97.63 71.2599 97.61 71.2699 97.59Z" fill="#EBDBC2"/>
<path d="M72.7399 96.6801C72.5799 98.5601 75.3899 98.6801 75.3899 96.6801C75.3899 95.6801 72.8899 94.8001 72.7399 96.6801Z" fill="#EBDBC2"/>
<path d="M79.1399 96.6801C79.1399 95.6801 76.7599 94.9301 76.6599 96.6801C76.5499 98.4301 79.1399 98.6801 79.1399 96.6801Z" fill="#EBDBC2"/>
<path d="M178.28 98.35C178.31 98.23 178.33 98.11 178.35 97.99C178.31 98.2 178.29 98.3 178.28 98.35Z" fill="#EBDBC2"/>
<path d="M175.12 86.72C175.14 86.74 175.18 86.71 175.16 86.69C169.56 78.51 179.01 73.79 185.72 69.26C185.58 69.49 185.49 69.78 185.49 70.13C185.49 72.13 188.21 72.13 188.21 70.13C188.21 69.01 187.35 68.51 186.6 68.65C187.19 68.24 187.75 67.82 188.27 67.4C193.21 73.37 199.3 82.53 191.64 88.59C191.62 88.61 191.65 88.64 191.67 88.63C198.54 85.71 197.47 79.53 195.27 73.55C195.31 73.62 195.35 73.68 195.39 73.75C196.64 75.85 196.91 78.46 197.37 80.82C197.37 80.83 197.4 80.83 197.39 80.82C197.3 79.56 197.32 78.23 197.21 76.93C197.41 77.52 197.57 78.12 197.67 78.76C198.06 81.23 197.48 87.43 194.13 88.09C194.1 88.1 194.11 88.14 194.14 88.14C198.11 87.78 199.49 81.06 199.14 77.97C198.82 75.18 197.37 72.83 195.82 70.55C194.7 68.9 193.65 66.89 192.46 65.09C191.67 63.12 190.61 61.08 188.77 60.23C187.95 59.85 186.12 61.04 184.14 62.8C179.6 66.04 174.44 68.63 171.88 74.07C169.86 78.36 170.35 83.38 174.04 86.57C174.06 86.59 174.07 86.56 174.05 86.53C167.93 79.04 173.34 72.54 180.01 68.2C178.7 69.32 177.48 70.54 176.4 71.72C174.35 73.98 172.37 76.41 172.32 79.58C172.32 79.6 172.34 79.6 172.34 79.58C172.67 74.63 177.75 70.94 182.07 67.88C176.1 73.39 168.19 80.39 175.12 86.72Z" fill="#EBDBC2"/>
<path d="M198.19 86.13C198.17 86.11 198.14 86.14 198.15 86.16C202.32 92.62 210.03 86.19 214.76 84.23C215.78 83.81 215.39 83.02 214.66 82.19C213.18 79.42 210.5 77.29 207.45 76.5C204.96 75.85 200.51 76.08 199.63 78.91C199.62 78.93 199.65 78.95 199.67 78.93C201.59 77.17 204.83 77.06 206.91 77.83C204.42 77.42 201.3 78.42 199.95 79.97C199.94 79.98 199.95 80 199.96 79.99C202.01 79.07 204.02 78.55 205.99 78.99C204.06 79.11 202.01 79.79 200.8 80.32C200.79 80.33 200.8 80.35 200.81 80.34C202.52 79.79 204.31 79.49 206.1 79.78C206.32 79.82 206.54 79.87 206.75 79.94C204.32 79.91 201.66 80.55 200.05 81C200.01 81.01 200.02 81.07 200.06 81.07C202.21 81.13 204.36 80.96 206.45 81.59C206.77 81.69 207.08 81.83 207.38 81.98C206.89 81.93 206.4 81.87 205.93 81.81C203.82 81.52 201.99 81.39 199.98 82.21C199.92 82.23 199.92 82.33 200 82.33C201.89 82.22 203.71 82.51 205.52 82.85C205.27 82.89 205.02 82.92 204.77 82.94C203.07 83.11 201.38 83.22 199.67 83.24C199.65 83.24 199.66 83.26 199.67 83.26C201.67 83.48 204.11 83.81 206.39 83.69C206.36 83.7 206.32 83.71 206.29 83.72C203.86 84.36 201.48 84.52 199 84.19C198.94 84.18 198.94 84.27 198.99 84.28C201.42 85.17 204.02 85.65 206.61 85.43C206.52 85.46 206.43 85.5 206.33 85.52C204.17 86.13 201.26 85.9 199.17 85.14C199.16 85.14 199.15 85.16 199.16 85.16C200.85 85.99 203.28 86.56 205.57 86.45C203.17 87.19 200.55 87.24 198.48 85.57C198.47 85.56 198.45 85.58 198.46 85.59C200.04 87.26 202.4 87.84 204.79 87.65C202.49 88.4 200.22 88.28 198.19 86.13Z" fill="#EBDBC2"/>
<path d="M199.57 74.9602C202.33 75.6302 205.29 75.3002 207.62 73.5702C210.28 71.6002 210.8 68.9102 212.01 65.9902C212.64 64.4602 211.49 63.8602 210.79 63.7502C208.3 63.3602 203.71 62.8202 201.46 63.5602C198.73 64.4602 197.18 66.8602 197.02 69.6702C197.02 69.7002 197.05 69.7002 197.07 69.6802C198.04 68.3702 198.87 66.8102 200.31 65.9502C200.89 65.6002 201.54 65.4102 202.2 65.3102C199.84 66.4002 198.1 68.4402 197.27 70.8902C197.26 70.9202 197.3 70.9302 197.31 70.9102C198.31 69.1902 199.64 67.8202 201.32 66.9402C200.41 67.8102 199.62 68.8302 198.92 69.6302C198.91 69.6402 198.93 69.6602 198.94 69.6502C199.84 68.7202 200.82 67.8602 201.87 67.1102C202.41 66.7202 202.99 66.4302 203.57 66.1502C203.1 66.4602 202.66 66.8102 202.29 67.1502C200.79 68.5402 199.06 70.0102 197.99 71.7702C197.98 71.7802 198 71.7902 198.01 71.7902C199.69 70.5202 201.09 69.2402 203.15 68.6302C203.46 68.5402 203.8 68.4502 204.14 68.3502C203.75 68.5402 203.36 68.7502 203.01 68.9402C201.79 69.6002 200.71 70.4602 199.57 71.2502C199.56 71.2602 199.57 71.2802 199.58 71.2702C200.63 70.6402 201.72 70.0702 202.82 69.5302C203.24 69.3202 203.69 69.1602 204.14 69.0002C202.27 70.3202 200.27 71.4602 198.23 72.5002C198.22 72.5102 198.23 72.5202 198.24 72.5202C200.07 72.0302 201.81 71.3902 203.51 70.5902C202.22 71.7602 200.68 72.6902 199.17 72.9602C199.14 72.9602 199.15 73.0102 199.18 73.0102C200.82 72.9002 202.22 72.1402 203.49 71.1502C203.59 71.0702 203.69 70.9902 203.8 70.9102C202.36 72.1902 200.77 73.2302 198.87 73.6102C198.85 73.6102 198.85 73.6502 198.87 73.6602C200.74 73.9302 202.69 72.8102 204.34 72.0802C204.98 71.8002 205.59 71.4802 206.16 71.1302C204.36 73.0102 201.95 74.2002 199.15 74.5002C199.13 74.5002 199.13 74.5202 199.15 74.5302C202.18 74.6302 205.19 73.4902 207.48 71.5102C207.3 71.7402 207.12 71.9702 206.9 72.1902C204.94 74.1902 202.33 75.1002 199.56 74.9702C199.55 74.9102 199.55 74.9502 199.57 74.9602Z" fill="#EBDBC2"/>
<path d="M200.7 61.49C201.65 60.33 201.97 58.84 202.58 57.5C205.25 51.62 202.78 50.8 201.67 51.52C197.69 52.89 188.48 52.36 189.58 59.05C189.58 59.07 189.61 59.07 189.62 59.06C190.42 58.21 190.7 57.02 191.58 56.23C192.27 55.61 193.18 55.25 194.11 55.04C194 55.1 193.9 55.16 193.8 55.22C191.79 56.37 190.43 58.12 190.05 60.41C190.05 60.43 190.07 60.43 190.07 60.42C190.68 58.49 192.12 57.24 193.85 56.44C192.8 57.53 191.93 58.87 191.2 59.98C191.19 59.99 191.21 60 191.22 59.99C192.09 59 192.96 58 193.92 57.09C194.45 56.59 195.02 56.18 195.61 55.79C195.64 55.78 195.66 55.77 195.69 55.77C195.9 55.71 196.12 55.66 196.35 55.62C195.57 56.24 194.81 56.9 194.01 57.58C192.65 58.74 191.45 59.81 190.93 61.57C190.93 61.58 190.95 61.59 190.95 61.58C191.65 60.15 192.88 59.17 194.3 58.41C193.52 59.06 192.81 59.8 192.16 60.59C192.14 60.61 192.17 60.64 192.19 60.62C193.08 59.74 194.05 58.99 195.09 58.29C195.74 57.86 196.49 57.54 197.16 57.13C197.43 57.02 197.7 56.92 197.97 56.82C197.12 57.58 196.23 58.28 195.37 58.89C193.93 59.92 192.52 60.79 191.7 62.42C191.69 62.43 191.71 62.44 191.72 62.43C192.63 61.25 193.97 60.52 195.34 59.85C194.43 60.51 193.59 61.28 192.81 62.08C192.8 62.09 192.82 62.11 192.83 62.1C194.05 60.99 195.42 60.19 196.84 59.42C196.71 59.55 196.57 59.68 196.43 59.8C195.1 60.98 193.61 61.91 192.61 63.42C192.6 63.43 192.62 63.44 192.63 63.43C193.75 62.32 195.16 61.65 196.55 60.94C195.83 61.54 195.12 62.14 194.39 62.7C194.37 62.72 194.39 62.76 194.41 62.74C195.78 61.86 197.28 60.95 198.52 59.83C197.03 61.68 195.11 63.13 192.94 64.12C192.9 64.14 192.93 64.19 192.97 64.18C195.26 63.63 197.34 62.6 199.16 61.12C197.85 62.75 195.9 63.69 193.93 64.58C193.91 64.59 193.92 64.63 193.94 64.63C196.47 64.41 199.04 63.52 200.7 61.49Z" fill="#EBDBC2"/>
<path d="M181.8 44.5402C181.72 46.6702 179.36 48.3202 178.66 50.2902C178.22 51.5102 178.1 52.7702 178.4 54.0402C179.05 56.7502 181.51 59.1002 184.09 60.0002C184.12 60.0102 184.13 59.9702 184.11 59.9502C182.68 58.8702 181.35 57.3102 180.62 55.6502C179.88 53.9802 179.98 52.6602 180.59 51.4202C180.56 52.3402 180.63 53.2302 180.75 53.9102C181.17 56.2602 182.48 58.1502 184.56 59.3002C184.57 59.3102 184.59 59.2902 184.57 59.2802C182.4 57.6602 181.61 55.1402 181.95 52.5502C182.01 54.4302 182.28 56.1902 183.55 57.8702C183.56 57.8802 183.58 57.8702 183.57 57.8602C182.75 56.4902 182.41 55.0902 182.46 53.5902C183.06 55.7102 184.15 57.6902 185.37 59.5002C185.38 59.5102 185.4 59.5002 185.39 59.4902C184.25 57.0402 183.8 54.4902 183.75 51.7902C183.74 51.5102 183.76 51.2302 183.78 50.9402C183.9 51.3902 184.02 51.8402 184.1 52.2602C184.6 54.7502 185.08 57.2502 186.3 59.5002C186.31 59.5102 186.32 59.5002 186.32 59.4902C185.61 56.7802 185.66 54.1302 185.44 51.4002C185.5 51.5802 185.56 51.7502 185.6 51.9302C186.21 54.2102 186.13 56.5602 186.64 58.8502C186.64 58.8602 186.67 58.8602 186.66 58.8502C186.47 56.6602 186.77 54.0702 186.6 51.6402C187.49 53.9302 187.55 56.1502 187.2 58.7402C187.2 58.7602 187.22 58.7602 187.22 58.7502C187.95 56.1302 188.53 53.6402 187.69 50.9702C188.7 53.2802 188.61 55.9102 187.74 58.3202C187.73 58.3502 187.77 58.3602 187.79 58.3402C189.13 56.3002 189.56 54.0102 189.1 51.6002C188.51 48.5302 185.89 47.1502 184.99 44.3702C184.4 42.5602 181.85 43.1202 181.8 44.5402Z" fill="#EBDBC2"/>
<path d="M168.82 52.6501C168.34 53.9801 168.48 55.7801 168.53 57.0201C168.6 58.6601 168.63 60.3401 169.31 61.8701C170.44 64.4101 173.59 66.2501 176.36 65.9201C176.41 65.9101 176.43 65.8401 176.37 65.8301C174.26 65.4801 172.35 64.2501 171.27 62.5101C172.61 64.2201 174.25 65.0401 176.57 65.3901C176.59 65.3901 176.59 65.3701 176.58 65.3701C174.38 64.7401 172.83 63.4401 171.88 61.5601C172.95 62.8101 174.31 63.8401 175.29 64.2401C175.3 64.2501 175.31 64.2201 175.3 64.2201C173.89 63.5001 172.94 62.1901 172.14 60.8601C172 60.6301 171.89 60.4101 171.79 60.1901C173.2 62.0301 175.06 63.6401 176.89 64.5501C176.99 64.6001 177.12 64.4601 177.02 64.3801C175.9 63.4901 175.1 62.4101 174.46 61.2201C175.1 62.0401 175.88 62.7201 176.71 63.3301C176.73 63.3501 176.76 63.3101 176.74 63.2901C175.99 62.5401 175.35 61.7201 174.77 60.8501C174.72 60.7801 174.69 60.7101 174.64 60.6401C175.81 61.8901 177.08 63.0301 178.55 63.9901C178.56 64.0001 178.58 63.9801 178.56 63.9701C177.44 63.0601 176.51 62.0401 175.67 60.9601C176.4 61.7001 177.17 62.4001 177.99 62.9601C178 62.9701 178.01 62.9501 178.01 62.9401C177.26 61.6001 176.25 60.3501 175.33 59.0901C175.72 59.3101 176.12 59.5301 176.49 59.8001C177.78 60.7101 178.48 62.0101 179.13 63.4001C179.15 63.4501 179.23 63.4101 179.22 63.3601C178.62 61.0801 177.8 59.6001 175.97 58.0801C175.52 57.7001 175.09 57.3401 174.69 56.9701C177.35 58.2901 179.01 60.2201 179.93 63.2101C179.93 63.2301 179.96 63.2201 179.95 63.2001C179.54 60.8601 178.91 58.2901 176.91 56.7901C176.4 56.4101 175.86 56.1201 175.29 55.8601C178.34 57.0001 180.17 59.4501 180.43 62.7401C180.43 62.7701 180.48 62.7701 180.48 62.7401C180.49 60.3201 180.05 57.8501 178.23 56.0901C176.24 54.1701 173.56 53.4501 171.29 51.8701C170.58 51.3501 169.2 51.6201 168.82 52.6501Z" fill="#EBDBC2"/>
<path d="M158.14 67.1701C159.62 68.2901 160.2 70.1701 161.36 71.5701C162.17 72.5601 163.2 73.3701 164.35 73.9501C166.45 75.0001 168.74 75.1301 170.4 73.3101C170.42 73.2901 170.4 73.2601 170.37 73.2701C168.56 74.2501 166.67 73.8901 165.13 72.8601C167.05 73.8001 169.18 73.9001 171.15 72.2301C171.16 72.2201 171.15 72.2101 171.14 72.2101C168.76 73.5701 166.78 72.8201 165.16 71.3401C166.54 72.2301 168.23 72.6301 169.88 72.2801C169.89 72.2801 169.89 72.2601 169.88 72.2601C168.28 72.4301 166.24 71.5801 164.98 70.6101C164.81 70.4801 164.66 70.3301 164.51 70.1801C165.07 70.5501 165.64 70.9101 166.29 71.1401C168.01 71.7601 169.88 71.8001 171.65 71.4401C171.66 71.4401 171.66 71.4201 171.65 71.4201C169.05 71.5201 167.46 70.5101 165.77 69.0301C165.96 69.1101 166.14 69.1901 166.33 69.2601C168.33 70.0301 170.24 70.5001 172.38 70.2201C172.4 70.2201 172.4 70.2001 172.38 70.2001C170.67 70.0801 169.17 69.4301 167.7 68.6901C168.51 68.8601 169.32 69.0601 170.12 69.3601C170.13 69.3601 170.14 69.3401 170.13 69.3401C168.92 68.6901 167.5 68.0501 166.08 67.8601C165.97 67.8001 165.86 67.7501 165.75 67.6901C166.69 67.8201 167.64 67.9801 168.56 68.1901C169.87 68.4901 170.98 69.1801 172.24 69.5801C172.25 69.5801 172.26 69.5601 172.25 69.5601C170.91 68.8101 169.79 67.7001 168.46 66.9201C168.24 66.7901 168 66.6801 167.77 66.5701C169.72 66.7601 171.49 67.6601 172.8 69.3801C172.81 69.3901 172.83 69.3801 172.82 69.3701C171.83 67.7101 170.48 66.4601 168.66 65.7901C168.05 65.5601 167.41 65.4401 166.76 65.3701C168.01 65.2101 169.23 65.3001 170.37 66.0601C171.63 66.9001 172.52 67.9201 173.45 69.1001C173.47 69.1201 173.5 69.0901 173.49 69.0701C172.44 67.2001 171.32 65.0001 169.16 64.2701C166 63.2001 162.81 66.1101 160.01 64.7901C158.28 63.9701 156.68 66.0601 158.14 67.1701Z" fill="#EBDBC2"/>
<path d="M169.63 77.3502C168.3 77.0702 166.81 76.8202 165.36 76.8302C166.82 76.5902 168.41 76.6502 169.79 76.6102C169.82 76.6102 169.82 76.5602 169.79 76.5602C167.49 76.3502 164.49 75.3502 162.29 76.4502C160.15 77.5202 159.69 80.1202 157.9 81.5202C157.04 82.5602 157.64 83.6402 158.41 83.6602C161.55 83.7702 168.23 88.7602 170.27 84.0102C170.29 83.9702 170.25 83.9202 170.21 83.9502C168.31 85.1102 166.57 84.8102 164.86 84.1002C164.96 84.1102 165.07 84.1302 165.17 84.1402C166.95 84.3702 168.84 84.3402 170.41 83.3902C170.42 83.3802 170.41 83.3602 170.4 83.3702C169.42 83.7302 168.5 83.6802 167.6 83.4502C168.13 83.3902 168.66 83.2702 169.15 83.0802C169.17 83.0702 169.17 83.0302 169.14 83.0302C168.36 83.0902 167.62 83.0702 166.89 82.9802C167.07 82.9602 167.25 82.9302 167.42 82.9102C168.41 82.7902 169.39 82.6902 170.2 82.0702C170.22 82.0502 170.21 82.0202 170.18 82.0302C169.13 82.1902 168.3 81.8202 167.4 81.5002C167.92 81.4002 168.43 81.2802 168.91 81.1302C168.98 81.1102 168.96 81.0202 168.89 81.0102C168.39 80.9702 167.85 80.9902 167.31 81.0402C168.21 80.7602 169.09 80.4202 169.95 79.9702C169.96 79.9602 169.95 79.9402 169.94 79.9502C168.19 80.5402 166.36 80.7302 164.52 80.8202C164.59 80.8002 164.66 80.7702 164.73 80.7502C165.7 80.4502 166.94 80.5702 167.79 80.0102C167.8 80.0002 167.79 79.9802 167.78 79.9902C167.07 80.1902 166.29 79.9502 165.56 79.9802C165.38 79.9902 165.21 80.0102 165.04 80.0302C165.25 79.9502 165.47 79.8802 165.68 79.8302C167.04 79.5702 168.41 79.9502 169.49 78.9202C169.51 78.9002 169.49 78.8702 169.47 78.8802C167.79 79.4302 166.2 78.2302 164.45 78.3702C164.5 78.3602 164.55 78.3302 164.61 78.3202C165.92 78.0202 167.16 78.4102 168.44 78.1602C168.47 78.1502 168.46 78.1202 168.43 78.1102C167.2 78.0102 166.14 77.6302 164.94 77.6902C166.46 77.2502 168.06 77.3002 169.62 77.3502C169.64 77.3802 169.64 77.3602 169.63 77.3502Z" fill="#EBDBC2"/>
<path d="M191.78 83.6802C191.49 85.3502 193.66 85.8302 193.94 84.3102C194.32 81.9602 192.06 82.0002 191.78 83.6802Z" fill="#EBDBC2"/>
<path d="M191.38 80.68C191.24 82.44 194.05 82.68 194.05 80.68C194.05 78.68 191.52 78.92 191.38 80.68Z" fill="#EBDBC2"/>
<path d="M190.17 76.7301C190.18 78.6701 192.61 78.6801 192.61 76.6801C192.6 74.7901 190.15 74.7901 190.17 76.7301Z" fill="#EBDBC2"/>
<path d="M189.39 71.4602C187.7 71.2902 186.84 73.8702 189.05 74.3802C190.81 74.7802 191.28 71.6602 189.39 71.4602Z" fill="#EBDBC2"/>
<path d="M184.03 72.07C184.01 72.06 183.98 72.05 183.96 72.04C183.05 71.6 181.98 72.32 182.24 73.36C182.25 73.38 182.25 73.41 182.26 73.43C182.47 74.26 183.5 74.56 184.16 74.06C184.78 73.57 184.81 72.45 184.03 72.07Z" fill="#EBDBC2"/>
<path d="M181.77 75.6801C181.77 73.6801 179.28 73.9901 179.12 75.6801C178.96 77.3701 181.77 77.6801 181.77 75.6801Z" fill="#EBDBC2"/>
<path d="M176.23 77.1202C176.23 79.1202 178.71 79.1202 178.71 77.1202C178.71 75.4602 176.23 75.5402 176.23 77.1202Z" fill="#EBDBC2"/>
<path d="M175.87 80.1201C175.87 79.1201 174.26 79.1201 174.26 80.1201C174.26 81.1201 175.87 81.1201 175.87 80.1201Z" fill="#EBDBC2"/>
<path d="M196.07 39.64C192.36 37.94 184.95 35.1 183.38 30.64C182.83 28.46 180.67 28.59 180.18 30.69C178.21 34.85 175.41 38.45 171.53 41.01C169.32 42.47 166.64 43.25 164.73 45.14C161.27 48.56 160.33 53.69 161.8 58.14C158.09 57.7 154.16 58.02 152.43 61.92C150.45 66.38 153.26 70.55 156.45 73.51C152.89 75.01 151.32 79.05 153.03 82.79C155.37 87.9 161.14 88.67 166.1 88.07C166.13 88.07 166.13 88.02 166.1 88.02C163.28 88.13 160.28 87.9 157.77 86.44C154.76 84.69 153.1 80.78 154.08 77.92C153.85 79.38 153.99 80.91 154.43 81.91C154.93 83.05 155.89 83.98 157.05 84.73C156.35 84.08 155.75 83.29 155.3 82.34C154.44 80.53 154.61 78.4 155.71 76.69C156.19 75.94 158.05 74.73 158.35 74.68C158.97 74.58 159.16 73.67 158.72 73.28C156.69 71.46 154.62 69.6 154.17 66.76C154.09 66.23 154.07 65.74 154.09 65.28C154.37 68.27 156.7 70.95 158.91 72.93C158.92 72.94 158.94 72.92 158.93 72.91C156.41 70.44 153.21 66.15 155.6 62.55C157.34 59.93 159.72 60.6 162.06 60.66C164.39 60.57 164.64 59.52 164.32 58.89C162.02 54.24 163.41 48.18 167.91 45.39C169.86 44.19 171.96 43.4 173.83 42.03C173.66 42.19 173.49 42.36 173.32 42.52C171.02 44.59 168.15 46.05 166.13 48.42C163.42 51.6 163.51 55.26 164.86 59.06C164.87 59.08 164.89 59.07 164.88 59.05C163.71 53.57 164.87 49.73 169.46 46.28C170.92 45.19 172.46 44.24 173.87 43.07C177.23 40.29 179.72 36.99 181.72 33.16C184.36 36.83 187.97 39.1 192.05 41.17C197.16 43.76 210.49 48.83 207.29 56.51C207.28 56.52 207.31 56.53 207.31 56.52C209.83 52.16 206.19 48.87 202.77 46.49C198.98 43.85 194.39 41.92 190.33 39.41C190.84 39.67 191.3 39.9 191.71 40.1C195.16 41.78 198.82 43.11 202.06 45.21C204.34 46.69 212.11 53.52 208.27 56.38C207.39 57.04 207.73 58.25 208.81 58.38C208.89 58.39 208.96 58.4 209.04 58.41C210.41 59.45 212.35 59.89 213.63 61.18C216.41 63.98 217.03 68.33 214.25 71.38C214.24 71.39 214.26 71.41 214.27 71.4C216.44 69.39 217.02 66.39 215.95 63.63C215.37 62.12 214.42 61 213.3 60.07C217.04 62.64 218.65 67.54 214.65 71.57C214.23 72 214.26 72.86 214.85 73.14C215.38 73.39 215.86 73.69 216.32 74.02C219.03 77.2 220.08 81.52 217.51 85.37C214.7 89.59 208.53 91.25 203.86 90.24C203.84 90.24 203.84 90.26 203.85 90.26C208.9 91.49 215.21 89.86 218.13 85.2C219.67 82.73 219.91 79.76 219.06 77.13C220.64 80.09 220.45 83.81 217.7 86.68C214.31 90.23 208.43 91.99 203.78 90.59C203.75 90.58 203.74 90.63 203.77 90.64C209.27 92.86 217.3 90.66 220.52 85.42C223.52 80.53 221.42 74.88 216.93 72.02C221.88 66.02 217.51 58.57 210.71 56.62C212.39 53.27 209.08 48.38 206.68 46.04C203.67 43.13 199.82 41.37 196.07 39.64Z" fill="#EBDBC2"/>
<path d="M165.74 87.6601C165.65 87.6601 165.57 87.6501 165.48 87.6501C165.63 87.6701 165.74 87.6901 165.74 87.6901C165.74 87.6801 165.74 87.6601 165.74 87.6601Z" fill="#EBDBC2"/>
<path d="M157.04 84.73C159.25 86.8 162.49 87.53 165.48 87.64C164.42 87.49 160.06 86.71 157.04 84.73Z" fill="#EBDBC2"/>
<path d="M7.87979 137.98C7.88979 137.98 7.89981 137.98 7.89981 137.98C7.54982 138.4 7.18982 138.82 6.77982 139.2C4.94982 140.94 2.59982 142.15 -0.000179967 143L-0.000180005 143.86C1.67982 143.4 3.3098 142.82 4.8898 142.07C4.2798 142.49 3.64979 142.9 2.93979 143.26C1.97979 143.76 0.99982 144.16 -0.000180034 144.52L-0.000180081 145.6C0.24982 145.54 0.499808 145.49 0.73981 145.43C0.499808 145.5 0.239822 145.55 -0.000180082 145.62L-0.000180298 150.57C0.289821 150.53 0.589793 150.5 0.879794 150.46C0.589793 150.52 0.289821 150.58 -0.000180301 150.64L-0.000180412 153.18C2.80982 152.82 5.66981 152.28 8.39981 151.44C5.68981 152.57 2.86982 153.37 -0.000180444 153.9L-0.000180482 154.77C2.93982 154.41 6.70981 153.86 10.1398 152.68C7.12981 154.1 3.62982 154.98 -0.000180512 155.46L-0.000180564 156.65C6.13982 156.35 12.1298 154.93 17.0698 151.53C16.3798 152.24 15.5898 152.91 14.6498 153.52C10.4498 156.28 5.38981 157.17 0.459811 157.43C0.429812 157.43 0.429812 157.48 0.459811 157.48C5.11981 157.34 11.6498 156.41 16.4698 153.65C11.7898 156.99 5.76982 157.89 -0.000180616 157.85L-0.000180685 159.43C2.98982 159.49 5.9598 159.32 8.8898 158.88C13.8898 158.13 19.0498 156.28 22.7598 152.93C20.9698 155.21 18.5198 156.44 15.7498 157.43C10.6798 159.23 5.35981 160 -0.0101905 159.88L-0.0101905 159.95C5.48981 160.18 11.3398 159.82 16.6598 158.14C13.2198 159.5 9.43981 160.27 6.20981 160.65C4.12981 160.89 2.05981 160.96 -0.0101905 160.9L-0.0101905 161.34C4.59981 161.65 9.27981 161.35 14.0798 160.16C16.3198 159.6 18.6898 158.67 20.8698 157.4C15.6798 161.19 8.7498 162.41 2.3598 162.31C1.5698 162.3 0.779799 162.26 -0.0202003 162.22L-0.0202004 163.73C6.1998 164.34 12.4298 163.85 18.4998 161.61C22.4298 160.16 25.9098 157.74 28.5398 154.63C26.3798 158.74 22.2498 161.47 16.9298 162.97C11.5498 164.49 5.62979 165.29 -0.0302102 164.67L-0.0302102 164.9C7.21979 165.99 15.2498 164.87 21.8498 162.24C23.5798 161.55 25.3298 160.55 26.8998 159.32C25.9798 160.11 24.9998 160.8 23.9898 161.37C16.8698 165.35 8.28979 166.46 -0.0302103 165.56L-0.0302103 166.09C7.76979 167.26 15.9098 166.84 23.0898 164.12C23.0498 164.14 23.0198 164.16 22.9798 164.18C18.3598 166.3 13.3398 167.05 8.30982 167.3C8.27982 167.3 8.27982 167.35 8.30982 167.35C10.4598 167.28 13.4698 167.23 16.6198 166.93C11.1298 168.03 5.31979 167.95 -0.0302103 167.06L-0.0302104 168.98C6.25979 170.18 12.6698 170.33 19.1798 168.91C19.6498 168.81 20.1098 168.69 20.5798 168.57C20.4698 168.62 20.3598 168.69 20.2398 168.73C16.7598 170.18 13.0298 170.47 9.2898 170.37C6.1598 170.29 3.03979 169.96 -0.0302104 169.43L-0.0302104 169.92C4.44979 170.95 9.0098 171.56 13.6698 171.64C16.1198 171.68 20.0598 171.53 23.4598 170.57C22.1798 171.08 20.8098 171.41 19.5298 171.67C13.4998 172.93 7.33982 172.42 1.36981 171.14C0.899813 171.04 0.429789 170.91 -0.0302105 170.8L-0.0302105 171.78C3.41979 172.69 6.92982 173.34 10.4998 173.68C12.6098 173.88 14.8198 174.03 17.0298 173.99C11.4498 174.97 5.52979 174.28 -0.0302106 172.72L-0.0302106 173.24C2.86979 174.25 5.83979 175.06 8.90979 175.61C12.3598 176.23 16.3498 177 19.7998 176C17.1398 177.87 10.9098 176.86 8.55982 176.39C6.04982 175.89 3.5798 175.23 1.1698 174.39C0.7698 174.25 0.369791 174.1 -0.0302106 173.95L-0.0302106 174.62C11.3398 179.47 24.8098 182.86 25.7098 173.22C25.7398 172.92 25.6998 172.66 25.6298 172.43C30.3398 172.05 34.3098 166.17 32.8698 162.4C37.7598 158.39 41.1998 152.85 41.5598 146.09C42.1598 134.87 32.4798 125.45 21.1998 127.92C21.1698 127.93 21.1398 127.94 21.1098 127.95C18.6398 128.04 16.2598 129 14.2298 130.41C14.0798 130.27 13.9198 130.14 13.7498 130.03C9.56982 127.3 4.3898 130.03 0.859806 132.78C0.549804 133.02 0.259792 133.26 -0.0302088 133.5L-0.0302092 142.64C2.97979 141.68 5.71979 140.23 7.87979 137.98Z" fill="#EBDBC2"/>
<path d="M136.16 150.44C141.44 143.56 146.74 134.15 145.41 125.08C144.43 118.42 138.6 112.77 131.78 115.7C131.65 115.76 131.52 115.85 131.4 115.96C131.17 115.78 130.89 115.65 130.71 115.42C122.11 104.9 109.29 112.93 112.17 116.38C106.42 114.43 98.9598 116.3 97.0798 123.68C96.4798 125.8 98.0698 128.23 99.7798 128.56C109.3 130.36 106.34 146.45 104.04 152.59C100.38 162.35 92.6198 168.81 83.4498 173.25C65.0598 182.15 42.8398 185.16 22.7598 181.29C22.6998 181.28 22.6698 181.37 22.7298 181.39C31.8898 183.06 41.7598 183.78 51.4198 183.21C45.1498 184.16 40.9898 184.53 40.9898 184.36L40.9898 184.41C52.9898 184.62 65.0998 183.26 76.7598 179.65C86.6498 176.59 97.6198 172.36 104.85 164.66C109 160.25 112.05 154.57 113.57 148.56C112.86 151.58 111.75 154.51 110.31 157.25C104.81 167.71 94.6398 173.79 84.0798 178.27C65.9998 185.95 45.3198 187.88 26.1298 183.5C51.3898 189.3 80.1998 185.97 101.18 170.15C108.48 164.65 114.07 156.19 116.2 147.09C116.15 147.44 116.1 147.79 116.05 148.13C114.68 156.23 110.96 163.08 104.34 168.07C104.31 168.09 104.34 168.13 104.37 168.11C109.49 164.73 113.1 160.35 115.63 155.2C110.19 166.81 99.0998 174.56 87.2198 178.76C87.1898 178.77 87.1998 178.82 87.2298 178.81C101.78 173.87 115.22 164.61 120.61 149.59C121.45 147.24 122.14 144.69 122.48 142.11C122.42 142.84 122.32 143.56 122.18 144.29C119.95 155.5 113.45 165.14 104.07 171.53C85.8998 183.91 62.9898 188.97 41.2198 186.79C41.1898 186.79 41.1898 186.84 41.2198 186.84C55.2198 188.49 69.2398 187.28 82.6698 182.93C94.6798 179.04 108.18 172.9 116.09 162.7C119.73 158.01 123.15 151.87 124.65 145.54C125.01 145.03 125.33 144.49 125.62 143.91C125.57 144.14 125.52 144.37 125.46 144.59C122.91 155.36 117.26 165.72 107.8 171.86C107.77 171.88 107.8 171.92 107.83 171.9C119.17 164.85 127.01 151.7 129.19 138.51C128.84 143.72 127.11 148.99 124.9 153.39C118.39 166.41 104.59 178.12 90.4898 181.88C90.4298 181.9 90.4498 181.99 90.5198 181.98C109.71 176.81 129.07 161.04 131.73 140.29C132.75 132.37 130.89 124.62 124.87 120.27C131.9 122.28 133.3 134.13 132.71 140.93C131.86 150.74 126.38 160.05 118.61 166C118.59 166.02 118.61 166.06 118.64 166.04C128.39 159.14 134.54 148.47 135.74 136.55C136.1 133.01 135.82 129.25 134.85 125.88C137.02 130.98 137.06 136.9 135.95 142.28C133.46 154.34 124.28 164.64 114.01 170.94C113.96 170.97 114 171.06 114.06 171.03C127.04 162.93 138.66 150.95 139.1 134.73C139.14 133.34 139.07 131.95 138.91 130.57C139.83 132.53 140.2 134.68 140.03 136.92C140.03 136.98 140.2 136.98 140.22 136.93C140.57 135.94 140.98 134.92 140.98 133.9C140.98 133.96 140.98 134.01 140.98 134.07C140.98 137.51 140.41 143.4 137.81 146.02C137.79 146.04 137.82 146.08 137.85 146.06C139.04 145.02 140.01 143.41 140.8 141.53C139.56 144.7 137.95 147.72 136.09 150.41C136.06 150.44 136.13 150.49 136.16 150.44ZM109.3 152.96C106.72 160.26 101.64 166.21 94.9698 170.47C91.2498 172.84 86.2298 174.89 80.7498 176.64C85.1098 174.79 89.2898 172.54 93.1998 169.82C99.4098 165.51 104.24 159.68 107.08 152.87C105.74 158.4 103.18 163.44 98.1898 166.8C98.1698 166.82 98.1898 166.85 98.2098 166.84C103.69 163.87 106.98 158.61 109.3 152.96ZM137.08 119.09C137.67 119.14 138.31 119.33 139.04 119.75C141.49 121.19 142.64 123.81 143.07 126.53C142.42 123.03 140.33 120.13 137.08 119.09ZM143.28 129.04C143.29 129.45 143.29 129.86 143.27 130.25C143.18 132.68 142.75 135.14 142.1 137.55C142.89 134.5 143.28 131.35 143.28 129.04Z" fill="#EBDBC2"/>
<path d="M17.6799 181.18C20.3099 182.03 22.9898 182.77 25.7198 183.4C23.0098 182.77 20.3299 182.01 17.6999 181.13C17.6699 181.12 17.6499 181.17 17.6799 181.18Z" fill="#EBDBC2"/>
<path d="M25.3998 180.59C37.8598 182.2 51.9498 182.95 62.8998 175.58C71.3998 169.86 77.2298 160.07 74.0398 149.69C73.6798 148.51 70.2398 138.6 61.3298 137C55.4798 135.95 49.3798 139.63 48.5898 145.48C47.8398 148.85 48.9998 152.46 51.3998 154.85C53.7598 157.78 57.3598 159.58 61.4398 158.79C62.4398 158.6 63.5798 158.06 64.6398 157.3C65.8198 171.36 44.9798 179.98 31.2798 177.87C31.2498 177.87 31.2398 177.91 31.2698 177.92C41.8498 179.47 53.4598 177.11 61.1698 169.2C64.1698 166.13 66.4498 161.22 66.5698 156.58C67.2998 161.41 65.3298 166.2 62.0998 169.84C54.2398 178.68 39.9198 181.29 28.7498 179.09C28.6898 179.08 28.6598 179.17 28.7198 179.19C40.9898 181.45 54.3398 179.3 63.5598 170.26C68.5398 165.37 69.7898 156.87 68.4098 150.84C69.4298 152.54 70.0098 154.51 70.2598 156.46C71.0598 162.59 67.8898 168.71 63.3798 172.72C53.5798 181.46 37.7298 181.86 25.3898 180.5C25.3398 180.48 25.3398 180.58 25.3998 180.59Z" fill="#EBDBC2"/>
<path d="M144.91 90.7401C144.93 90.7701 144.97 90.7401 144.95 90.7101C139.17 80.7101 128.18 71.8201 116.06 76.9201C111.36 78.9001 108.09 82.9901 106.87 87.9701C103.99 99.7601 111.97 102.01 113.2 101.37C122.73 96.4501 134.98 96.3301 142.75 104.59C151.39 113.78 148.05 126.05 145.4 137C145.39 137.03 145.44 137.04 145.45 137.01C148.55 124.91 152.48 112.7 142.7 102.61C138.75 98.5301 133.81 96.2001 128.61 95.4201C132.74 95.5301 136.72 96.2901 139.86 99.2901C139.88 99.3101 139.92 99.2801 139.9 99.2501C137.32 96.4701 132.52 94.3401 127.69 93.6601C128.26 93.6601 128.83 93.6801 129.39 93.7201C137.97 94.3301 144.89 100.49 147.68 108.43C147.69 108.46 147.74 108.45 147.73 108.42C145.29 100.03 139.1 93.5101 130.52 91.2801C128.33 90.7101 123.98 90.5001 119.91 91.1401C120.47 90.9001 121.06 90.6801 121.72 90.5101C126.46 89.2501 131.69 90.3101 135.99 92.5101C144.02 96.6201 149.02 105.01 149.46 113.93C149.46 113.96 149.51 113.96 149.51 113.93C149.16 103.72 143.58 94.0101 134.11 89.6301C128.96 87.2501 119.9 86.9301 114.41 90.5601C119.01 86.1701 127.58 85.7401 133.12 87.5001C140.67 89.9001 146.28 95.9601 148.46 103.51C148.47 103.54 148.52 103.53 148.51 103.5C146.35 94.6701 140.26 87.5401 131.35 85.0401C128.34 84.2001 124.94 83.8501 121.65 84.1801C125.79 83.3401 130.01 83.7201 133.96 85.2501C133.99 85.2601 134 85.2201 133.98 85.2001C130.58 83.5901 125.88 82.4901 121.41 82.7001C123.07 82.3501 124.75 82.1801 126.29 82.2101C134.76 82.3701 141.91 87.8801 146.41 94.7101C146.43 94.7401 146.47 94.7101 146.45 94.6801C141.43 86.3601 133.59 80.4201 123.69 79.5201C123.07 79.4601 122.45 79.4401 121.83 79.4301C122.82 79.2701 123.83 79.1801 124.89 79.2001C129.51 79.3101 133.75 80.7801 137.5 83.4401C137.52 83.4601 137.55 83.4201 137.53 83.4001C133.89 80.5701 128.66 78.1501 123.52 77.6201C132.42 77.1601 140.29 83.3501 144.91 90.7401Z" fill="#EBDBC2"/>
<path d="M246.95 81.67C239.9 83.11 233.44 85.44 229.29 91.32C226.2 95.7 223.91 101.45 224.41 106.89C225.18 115.28 235.39 123.07 242.41 115.43C249.4 107.83 236.9 97.27 231.48 105.86C231.03 106.58 230.72 107.29 230.55 107.97C230.36 107.61 230.19 107.22 230.07 106.8C229.57 105.5 229.47 104.27 229.65 102.89C229.88 101.09 230.58 99.27 231.35 97.64C233.72 92.6 237.77 88.46 243.25 86.96C252.91 84.32 260.87 90.78 263.96 99.69C264.78 102.06 265.18 104.49 265.23 106.92C265.08 106.21 264.85 105.51 264.52 104.82C262.37 100.3 254.9 98.01 252.39 103.44C252.3 103.64 252.26 103.85 252.27 104.05C252.13 104.5 252.19 105.01 252.61 105.44C260.2 113.29 252.81 126.94 243.59 129.5C236.27 131.53 228.48 131.58 220.98 130.85C208.4 129.63 197.3 127.31 185.06 131.89C185.03 131.9 185.04 131.95 185.07 131.94C201.95 126.33 217.82 134.08 234.85 132.68C243.33 131.98 249.8 130.56 254.52 123.14C257.63 118.26 259.51 113.22 257.85 108.4C261.71 114.55 254.78 124.95 249.94 128.6C242.96 133.87 234.69 134.49 226.24 134.13C224.64 133.94 223.02 133.72 221.4 133.5C216.48 132.82 211.58 132.03 206.65 131.42C205.27 131.17 203.87 131.01 202.46 130.92C175.06 129.29 153.65 152.62 136.22 168.05C136.17 168.09 136.24 168.17 136.29 168.12C141.43 163.2 147.49 159.06 153.19 154.81C158.45 150.89 163.72 146.78 169.35 143.41C183.63 134.87 208.45 130.46 219.84 145.95C224.04 151.66 226.06 159.61 222.32 166.07C221.17 168.06 219.28 170.01 217.06 171.44C218.53 170.3 219.79 168.92 220.64 167.67C223.68 163.16 223.85 157.35 221.94 152.35C217.08 139.6 201.39 135.32 189.11 137.38C189.08 137.39 189.09 137.43 189.12 137.43C199.89 135.94 212.52 139.24 218.9 148.7C222.21 153.61 223.35 160.46 220.14 165.74C219.19 167.31 218.11 168.3 216.95 169.01C218.22 167.79 219.26 166.37 219.91 164.98C221.71 161.09 221.37 156.51 219.72 152.64C214.98 141.52 201.57 137.92 190.57 138.35C190.54 138.35 190.54 138.4 190.57 138.4C199.89 138.2 210.71 141.39 216.49 149.18C219.97 153.87 222 161.8 217.23 166.44C216.54 167.11 215.74 167.6 214.91 168.01C216.14 158.19 197.82 152.02 194.02 165.13C189.96 179.13 207.42 185.25 217.9 180.65C229.64 175.49 234.84 161.93 230.38 150.08C228.49 145.05 225.31 140.97 221.35 137.87C230.42 140.24 239.73 141.79 248.79 138.93C258.33 135.92 266.49 128.54 270.02 119.2C280.05 92.66 256.14 79.79 246.95 81.67ZM227.16 134.25C238.69 134.94 249.24 133.26 257.02 123.72C258.87 121.45 260.93 116.84 261.53 112.51C261.72 116.29 260.07 120.16 257.94 123.16C253.47 129.46 245.9 133.37 238.36 134.75C234.73 134.94 230.98 134.68 227.16 134.25ZM265.97 123.48C260.6 132.4 251.27 138.35 240.88 139.26C233.78 139.88 226.79 138.52 219.9 136.78C219.68 136.62 219.44 136.48 219.21 136.33C226.94 137.78 235.28 139.56 243.07 138.49C257.72 136.48 269.49 122.77 270.27 108.33C270.31 113.57 268.73 118.9 265.97 123.48ZM263.75 109.69C264.17 114.1 262.39 118.5 260.26 122.24C260.24 122.27 260.29 122.29 260.3 122.27C261.35 120.75 262.45 118.97 263.37 117.07C262.31 119.79 260.82 122.36 258.98 124.65C253.5 131.47 246.88 134.05 239.69 134.67C247.66 133.21 254.98 129.22 259.8 122.45C262.46 118.71 264.6 112.08 263.1 107.19C263.44 107.98 263.67 108.84 263.75 109.69Z" fill="#EBDBC2"/>
<path d="M150.8 181.22C147.07 184.65 147.52 190.91 151.17 194.19C155.16 197.79 161.62 197.79 165.74 194.8C176.06 187.33 170.76 173.74 159.86 170.31C145.85 165.9 131.18 173.56 118.8 179.24C118.74 179.27 118.79 179.35 118.85 179.33C129.33 174.41 141.65 169.27 153.45 171.5C157.58 172.28 162.13 174.19 164.22 177.85C162.3 175.57 159.33 174.2 156.39 173.39C142.12 169.49 127.43 176.7 114.54 182.06C114.51 182.07 114.52 182.12 114.55 182.11C123.47 178.69 132.7 174.67 142.24 173.49C147.61 172.82 153.7 172.88 158.53 175.66C159.86 176.42 161.07 177.37 161.96 178.5C158.9 176.09 153.57 174.67 151.13 174.54C139.32 173.91 127.51 177.93 116.72 182.29C116.69 182.3 116.7 182.35 116.73 182.34C124.82 179.75 132.83 176.68 141.33 175.7C145.42 175.23 149.94 174.96 153.96 175.98C157.14 176.79 158.54 178.16 159.59 179.88C156.71 178.68 153.19 179.02 150.8 181.22Z" fill="#EBDBC2"/>
<path d="M136.69 169.28C136.64 169.32 136.68 169.4 136.74 169.37C142.88 165.54 149.74 161.37 156.83 159.71C161.2 158.69 165.7 158.62 170 160.03C172.07 160.7 174.71 161.92 175.8 163.98C176.39 165.09 176.93 166.29 177.16 167.57C177.47 169.31 179.63 168.3 180.03 168.16C186.27 166.02 190.58 160.03 188.9 153.59C193.6 152.61 194.05 146.06 190.53 143.84C193.37 141.93 191.24 139.02 188.28 138.57C184.92 138.05 181.13 139.12 178.1 140.06C178.04 140.08 178.06 140.17 178.13 140.16C180.07 139.6 182.11 139.32 184.12 139.26C184.83 139.24 185.93 139.36 186.9 139.67C186.83 139.67 186.76 139.65 186.69 139.64C184.62 139.59 182.48 140.06 180.4 140.14C180.37 140.14 180.37 140.19 180.4 140.19C182.03 140.29 186.22 140.08 187.51 141.62C182.74 139.47 176.46 141.45 171.87 143.05C171.81 143.07 171.83 143.17 171.9 143.15C175.11 142.18 178.58 141.68 181.94 141.91C182.75 141.97 183.6 142.08 184.44 142.28C182.17 141.86 179.73 142.03 177.56 142.41C177.53 142.41 177.54 142.46 177.57 142.46C180.26 142.11 183.24 142.37 185.71 143.56C187.08 144.22 187.65 145 187.83 145.89C187.65 145.67 187.47 145.48 187.29 145.34C183.11 142.11 175.88 142.88 171.08 143.81C171.05 143.82 171.06 143.86 171.09 143.86C174.9 143.22 178.89 143.36 182.55 144.7C183.94 145.21 185.4 145.89 186.2 147.03C185.26 146.24 184 145.76 182.89 145.35C182.86 145.34 182.85 145.38 182.87 145.4C183.54 145.8 184.06 146.29 184.47 146.85C180.15 143.56 173.91 143.45 168.51 145.14C168.45 145.16 168.47 145.25 168.54 145.24C172.41 144.17 176.68 144.28 180.24 145.93C174.46 144.01 167.76 146.51 162.35 148.74C162.32 148.75 162.33 148.8 162.36 148.79C167.76 146.63 173.89 144.64 179.47 147.35C180.48 147.84 181.26 148.38 181.9 148.96C174.83 144.95 164.41 148.25 158.13 152.11C158.1 152.13 158.13 152.17 158.16 152.15C163.37 149.14 169.33 147.78 175.31 148.7C176.02 148.81 176.74 148.97 177.45 149.18C172.75 148.25 167.43 149.64 162.94 150.46C162.91 150.47 162.92 150.51 162.95 150.51C164.95 150.21 166.98 149.93 169 149.86C162.5 150.54 155.77 153.84 151.07 157.06C151.04 157.08 151.07 157.12 151.1 157.1C156.45 153.63 162.64 151.47 169.06 151.33C172.1 151.27 175.63 151.59 178.28 153.3C172.32 150.65 162.45 152.79 157.57 154.48C157.54 154.49 157.55 154.54 157.58 154.53C161.59 153.25 165.66 152.69 169.85 153.23C172.75 153.61 174.79 154.51 176.2 156.03C173.43 154.54 170.15 153.68 167.88 153.54C157.24 152.86 148.51 159.06 140.57 165.34C140.54 165.36 140.58 165.39 140.61 165.38C146.43 160.84 152.9 156.53 160.29 155.13C164.55 154.32 169.07 154.47 173.02 156.39C173.46 156.6 173.85 156.82 174.21 157.05C171.81 155.89 168.95 155.33 166.74 155.2C159.8 154.78 153.27 157.88 147.32 161.06C147.29 161.08 147.32 161.12 147.35 161.1C152.7 158.41 158.52 155.98 164.62 156.29C166.9 156.41 169.25 156.91 171.38 157.84C169.07 157.26 166.81 157 165.27 157.02C154.12 157.15 145.25 162.81 136.69 169.28Z" fill="#EBDBC2"/>
<path d="M166.5 110.96C167.39 112.71 167.88 114.82 168.04 116.77C168.3 119.87 167.71 122.97 166.59 125.84C166.58 125.87 166.62 125.88 166.64 125.86C169.36 121.08 170.87 113.89 168.49 108.8C163.32 97.7302 155.61 101.45 156.51 111.29C157.05 117.17 156.24 125.48 154.67 130.28C151.47 140.08 144.82 148.42 138.28 156.2C138.26 156.22 138.29 156.26 138.32 156.24C144.34 149.27 150.62 142.4 154.57 133.97C156.16 130.58 157.34 126.98 158 123.29C157.79 125.22 157.44 127.13 157 129.03C156.99 129.06 157.04 129.07 157.05 129.04C158.25 125.71 159.3 122.33 160.21 118.91C160.38 118.27 160.56 117.64 160.73 117.03C160.37 127.72 152.97 139.36 147.31 146.83C139.15 157.61 130.06 167.88 118.28 174.78C118.25 174.8 118.28 174.84 118.31 174.82C131.25 167.23 141.34 156.54 150.16 144.49C152.46 141.34 154.95 137.54 157.08 133.42C156.54 134.82 155.93 136.22 155.23 137.6C152.42 143.13 148.79 148.11 144.54 152.63C144.52 152.65 144.55 152.68 144.57 152.66C147.96 149.44 151.31 145.63 154.21 141.46C154.05 141.74 153.88 142.03 153.72 142.31C147.82 152.4 138.14 160.51 129.78 168.52C129.76 168.54 129.79 168.58 129.82 168.56C139.53 159.3 150.34 150.89 156.69 138.82C159.22 134.02 162.08 128.39 163.33 122.69C162.95 125.23 162.18 127.78 161.33 130.14C158.94 136.75 155.36 142.86 151.45 148.67C151.43 148.69 151.47 148.72 151.49 148.7C156.58 142.5 160.56 135.49 163.49 128.02C163.59 127.76 163.7 127.47 163.8 127.19C163.32 130.06 162.47 132.85 160.95 135.42C160.94 135.44 160.97 135.47 160.99 135.45C163.34 132.58 164.81 129.47 165.7 126.11C166.79 122.71 167.35 119.2 166.79 115.5C166.41 112.97 165.43 109.88 163.69 107.61C164.91 108.65 166.27 110.52 166.5 110.96Z" fill="#EBDBC2"/>
<path d="M-0.00013362 83.25C2.20987 89.59 3.10984 95.34 0.439837 102.76C0.299837 103.15 0.149865 103.54 -0.000134524 103.93L-0.000134629 106.34C1.96987 102.2 3.31986 97.7 3.45986 93.15C3.48986 94.33 3.42986 95.55 3.27986 96.82C3.27986 96.85 3.30984 96.85 3.31984 96.83C3.53984 96.08 3.72986 95.34 3.89986 94.6C3.34986 99.13 1.99986 103.58 -0.0101445 107.71L-0.0101445 108.54C2.10986 104.65 3.61984 100.42 4.43984 95.92C5.29984 91.19 5.51986 86.28 4.86986 81.51C4.48986 78.73 3.79986 76.01 3.05986 73.3C2.93986 72.86 2.70985 71.67 2.41985 70.24C3.51985 72.99 4.42985 75.76 4.79985 78.83C4.79985 78.86 4.84984 78.86 4.84984 78.83C4.62984 76.12 4.28985 73.33 3.57985 70.66C3.59985 70.71 3.61985 70.76 3.63985 70.81C5.05985 74.96 5.65985 79.28 5.94985 83.64C6.50985 92.06 5.10986 100.19 1.30986 107.77C0.899863 108.59 0.459856 109.39 -0.0101446 110.19L-0.0101446 111.65C0.879856 110.28 1.68984 108.87 2.40984 107.44C6.51984 99.26 7.89985 90.28 7.32985 81.21C7.15985 78.43 6.92984 74.75 6.21984 71.2C7.21984 74.39 7.40986 78.05 7.70986 81.05C8.24986 86.36 8.23984 91.6 7.03984 96.84C7.02984 96.87 7.07986 96.88 7.08986 96.85C8.72986 90.45 8.88985 84.08 8.32985 77.5C8.24985 76.6 8.17986 75.68 8.08986 74.75C8.59986 77.03 8.88984 79.35 8.96984 81.69C9.05984 84.48 8.89985 87.42 8.66985 90.23C8.01985 98.39 4.59985 106.13 -0.0201544 112.91L-0.0201545 113.15C5.17985 105.8 8.66986 97.8 9.64986 88.52C10.1499 83.78 10.3399 79.08 9.73986 74.38C11.0899 80.06 10.9998 85.81 9.69985 92.35C9.68985 92.38 9.73987 92.39 9.74987 92.36C11.8499 83.81 12.7599 73.09 7.57985 65.39C8.18985 66.24 8.73986 67.22 9.26986 68.39C12.6399 75.97 12.0799 84.89 10.5199 92.82C10.5099 92.85 10.5598 92.86 10.5698 92.83C12.3698 84.46 13.4898 75.31 9.97985 67.2C8.31985 63.37 5.03984 58.56 0.319844 59.22C0.229844 59.13 0.119867 59.06 -0.000132561 59.02L-0.00013362 83.25Z" fill="#EBDBC2"/>
<path d="M194.4 174.99C190.15 172.39 183.5 171.22 179.21 174.39C177.23 175.85 175.24 180.01 177.03 181.8C173.49 184.93 175.07 191.05 177.67 192.53C177.82 193.16 178.82 193.44 179.25 192.93C181.79 189.97 184.28 188.25 188.35 188.13C190.94 188.05 193.54 188.41 196.13 188.45C200.67 188.52 205.23 188.05 209.6 186.82C217.42 184.61 223.64 180.09 228.43 173.58C228.47 173.53 228.38 173.48 228.34 173.53C221.21 183.33 208.72 187.36 196.97 186.93C200.8 186.68 204.6 186.17 208.33 185.14C208.36 185.13 208.35 185.08 208.32 185.09C203.85 186.12 199.7 186.2 195.35 185.78C196.85 185.79 198.38 185.81 199.92 185.78C205.59 185.66 210.94 184.39 216.17 182.24C216.2 182.23 216.19 182.18 216.16 182.19C208.93 184.99 202.01 185.06 194.43 184.3C192.86 184.14 191.3 184.01 189.75 183.98C189.93 183.96 190.1 183.94 190.28 183.92C193.33 183.7 196.44 183.87 199.47 184.12C199.5 184.12 199.5 184.08 199.48 184.07C197.69 183.8 195.71 183.46 193.68 183.25C196.96 183.35 200.17 183.73 202.6 183.79C208.11 183.94 213.23 183.42 218.2 180.9C218.23 180.89 218.2 180.84 218.17 180.86C210.32 184.77 202.13 182.85 193.89 182.23C196.4 182.06 198.91 181.96 201.47 182.25C201.5 182.25 201.5 182.21 201.48 182.2C199.49 181.86 197.34 181.48 195.15 181.25C198.61 181.18 202.05 181.51 205.44 182.37C205.47 182.38 205.48 182.33 205.45 182.32C201.06 181.04 192.25 179.39 185.57 180.73C185.79 180.65 186 180.56 186.22 180.48C190.47 178.91 194.88 178.44 199.21 179.91C199.24 179.92 199.25 179.88 199.23 179.86C194.34 177.67 189.05 178.26 184.11 180.06C184.18 180.01 184.26 179.96 184.33 179.92C186.51 178.67 188.94 177.88 191.45 177.66C191.48 177.66 191.48 177.61 191.45 177.61C189.27 177.68 187.18 177.96 185.13 178.64C188.91 176.95 193.13 176.91 197.04 178.26C197.07 178.27 197.08 178.22 197.05 178.21C193.57 176.75 188.72 176.39 184.55 177.56C186.82 176.32 189.16 175.62 191.81 176.07C191.84 176.08 191.85 176.03 191.82 176.02C190.2 175.6 188.03 175.55 185.89 175.91C188.8 174.99 192.02 175.16 194.93 176.64C194.99 176.67 195.04 176.59 194.98 176.55C189.53 173.29 183.68 173.87 179.4 178.39C179.83 177.27 180.81 176.33 181.76 175.63C183.78 174.16 186.34 173.44 188.81 173.75C188.84 173.75 188.84 173.71 188.82 173.7C186.45 173.32 184.24 173.57 182.12 174.51C183.35 173.92 184.55 173.53 185.21 173.45C188.32 173.08 191.56 173.49 194.32 175.01C194.4 175.05 194.43 175.01 194.4 174.99Z" fill="#EBDBC2"/>
<path d="M247.9 98.9402C250.2 97.0202 254.29 94.7402 261.83 100.65C261.85 100.67 261.89 100.64 261.87 100.61C259.83 98.4002 257.11 95.8202 253.44 94.9602C255.77 95.3602 257.93 96.4702 259.79 98.1902C259.81 98.2102 259.85 98.1802 259.83 98.1502C257.34 95.5202 254.23 93.7502 250.58 93.3502C249.14 93.1902 247.74 93.3302 246.33 93.5002C247.99 93.1202 249.77 93.1302 251.6 93.4502C254.72 94.0002 260.63 96.3602 261.86 99.7402C261.91 99.8802 262.12 99.8302 262.09 99.6802C261.16 95.9802 255.83 93.4002 252.55 92.2902C250.93 91.7402 249.29 91.5002 247.66 91.5202C251.95 90.6502 256.12 92.1702 259.32 95.1102C259.34 95.1302 259.38 95.1002 259.36 95.0702C255.93 91.4602 251.34 89.3102 246.28 89.7602C246.04 89.7802 245.77 89.8102 245.48 89.8502C247.69 89.1302 250.31 89.1002 252.51 89.8102C256.97 91.2402 260.66 95.1402 262.56 99.2602C262.57 99.2802 262.61 99.2702 262.61 99.2502C261.97 93.1802 254.71 88.0502 248.89 87.9602C245.07 87.9002 235.7 91.6802 237.43 96.9402C237.66 97.6502 238.88 98.1302 240.12 97.3502C240.14 97.3902 240.14 97.4302 240.16 97.4702C241.13 99.5502 244.46 101.8 247.9 98.9402Z" fill="#EBDBC2"/>
<path d="M108.73 187.61C107.28 187.91 105.81 188.56 104.3 189.66C103.47 190.26 103.12 191.01 103.07 191.73C100.25 193.06 96.2598 195.82 97.3398 197.92C97.2898 197.98 97.2498 198.05 97.2098 198.13L121.6 198.13C121.96 198.09 122.32 198.05 122.68 197.99C122.74 197.98 122.72 197.89 122.67 197.89C119.03 197.86 115.44 197.02 111.85 196.34C113.37 196.33 117.7 196.72 119.22 196.82C119.31 196.83 119.35 196.68 119.27 196.65C117 195.67 111.85 194.28 109.39 193.91C108.86 193.83 108.26 193.74 107.65 193.69C107.73 193.63 107.81 193.57 107.9 193.51C110.5 193.22 113.22 194.06 115.77 194.83C120.4 196.23 124.53 197.54 129.4 197.64C129.47 197.64 129.46 197.55 129.4 197.54C124.54 196.95 119.91 194.95 115.34 193.27C114.27 192.88 113.14 192.41 111.98 191.99C117.21 191.43 123.06 195.1 127.86 196.42C129.94 196.99 132.02 197.39 134.11 197.65C133.13 197.77 132.15 197.93 131.17 198.12L135.16 198.12C136.13 197.91 137.12 197.72 138.13 197.59C130.65 196.89 125.29 193.94 121.4 191.64C121.91 191.73 122.42 191.83 122.91 191.99C125.64 192.87 128.31 194.12 130.92 195.31C130.95 195.32 130.97 195.28 130.95 195.27C128.15 193.64 125.48 191.72 122.59 190.26C122 189.96 121.4 189.66 120.81 189.41C123.04 190.16 125.07 191.14 126.26 191.73C130.29 193.71 134.09 195.02 138.49 195.95C138.52 195.96 138.53 195.91 138.5 195.9C133.97 194.48 130.28 192.4 126.34 189.87C125.96 189.63 125.59 189.39 125.21 189.15C128.44 189.86 131.77 192.04 134.69 193.32C139.06 195.23 143.29 196.1 148.01 196.45C148.07 196.45 148.07 196.37 148.02 196.35C141.56 194.34 136.57 190.52 130.81 187.45C134.05 187.27 137.47 190.36 140.03 191.75C142.49 193.08 144.95 194 147.73 194.39C147.79 194.4 147.82 194.31 147.75 194.3C142.48 193.1 139.31 189.88 135.22 186.65C132.66 184.63 129.99 183.99 127.03 185.48C126.96 185.52 126.9 185.56 126.84 185.6C123.67 184.41 120.08 183.9 117.39 185.81C114.46 185.32 110.8 185.53 108.73 187.61Z" fill="#EBDBC2"/>
<path d="M165.33 196.73C176.89 197.43 188.44 197.88 200.02 198.12L243.33 198.12C243.71 196.57 243.25 194.81 241.93 193.82C244.38 192.44 247.35 192.03 250.12 192.54C248.24 192.7 246.36 193.17 244.78 193.57C244.76 193.57 244.77 193.6 244.79 193.59C246.72 193.33 248.68 193.24 250.62 193.41C250.66 193.41 250.7 193.42 250.74 193.43C248.32 193.68 245.86 194.42 243.37 194.96C243.12 195.01 243.2 195.35 243.43 195.37C245.84 195.6 248.25 195.13 250.64 195.45C251.12 195.51 251.57 195.62 252.02 195.74C251.71 195.76 251.4 195.79 251.1 195.83C248.66 196.13 246.28 196.42 243.82 196.5C243.77 196.5 243.78 196.56 243.82 196.57C245.97 196.85 248.07 196.91 250.23 196.8C250.89 196.77 251.55 196.83 252.21 196.9C249.54 197.49 246.93 198.08 244.12 197.37C243.97 197.33 243.86 197.56 244.01 197.63C244.44 197.83 244.89 197.99 245.33 198.13L262.97 198.13C263.22 196.84 261.77 195.11 259.41 193.51C254.12 189.92 247.27 189.36 241.88 193.78C241.5 193.51 241.06 193.31 240.55 193.18C242.2 191.97 243.55 190.32 244.41 188.29C246.2 184.06 244.85 178.06 239.98 176.67C235.11 175.28 230.13 180.28 232.86 185.04C235.12 188.98 240.8 188.1 242.38 184.69C242.62 185.73 242.65 186.9 242.25 187.89C240.01 193.45 228.35 195.19 223.18 195.63C216.65 196.18 210.08 196.51 203.53 196.65C190.83 196.92 178.04 197.27 165.34 196.69C165.29 196.68 165.3 196.73 165.33 196.73Z" fill="#EBDBC2"/>
<path d="M269.12 198.12L277.61 198.12C277.86 196.43 276.94 194.7 274.93 193.86C271.24 192.31 268.14 189.22 266.34 187.62C264.15 185.68 261.79 184.41 258.88 184.04C252.32 183.2 246.53 186.34 242.86 191.64C242.84 191.66 242.88 191.69 242.9 191.67C247.09 186.73 253.95 184.04 260.28 186.08C257.27 185.36 254 185.55 250.66 186.66C250.64 186.67 250.65 186.69 250.67 186.68C252.88 186.13 254.9 185.94 256.89 186.17C256.52 186.18 256.15 186.19 255.78 186.23C251.87 186.69 245.94 188.09 243.41 191.4C243.39 191.42 243.43 191.44 243.45 191.43C246.4 188.95 252.92 187.57 256.68 187.97C262.32 188.56 266.13 193.5 269.65 197.69C269.47 197.83 269.3 197.98 269.12 198.12Z" fill="#EBDBC2"/>
<path d="M255.73 189.5C255.57 187.92 253.17 187.91 253.42 189.62C253.68 191.32 255.89 191.08 255.73 189.5Z" fill="#EBDBC2"/>
<path d="M259.15 190.61C259.15 188.61 256.39 188.95 256.48 190.61C256.57 192.27 259.15 192.61 259.15 190.61Z" fill="#EBDBC2"/>
<path d="M259.86 192.61C260.52 194.32 263.12 193.25 262.33 191.86C261.49 190.41 259.25 191.06 259.86 192.61Z" fill="#EBDBC2"/>
<path d="M264.56 194.71C264.56 194.07 264.03 193.57 263.4 193.55C263.34 193.55 263.27 193.55 263.21 193.54C262.04 193.5 261.67 195.12 262.63 195.69C262.66 195.71 262.69 195.73 262.73 195.75C263.11 195.98 263.47 195.96 263.76 195.81C264.22 195.66 264.56 195.18 264.56 194.71Z" fill="#EBDBC2"/>
<path d="M264.73 197.61C264.73 197.81 264.76 197.97 264.81 198.12L267.28 198.12C267.37 197.97 267.43 197.8 267.45 197.61C267.62 195.62 264.73 195.7 264.73 197.61Z" fill="#EBDBC2"/>
<path d="M297.12 196.92C291 192.84 282.87 189.02 278.36 196.1C278.29 196.21 278.46 196.35 278.54 196.24C280.27 194.13 282.59 192.86 285.21 192.76C283.11 193.3 281.08 194.44 279.76 195.63C279.75 195.64 279.76 195.66 279.77 195.65C281.08 194.78 282.48 194.2 283.96 193.89C281.96 194.59 280.06 195.73 278.43 196.96C278.42 196.97 278.43 196.99 278.44 196.98C281.01 195.37 283.86 194.54 286.91 194.77C287.22 194.79 287.53 194.84 287.84 194.89C284.75 195.01 281.74 196.02 278.97 197.35C278.96 197.36 278.97 197.38 278.98 197.37C280.92 196.67 282.92 196.22 284.96 196.06C283.15 196.52 281.41 197.16 280 197.73C279.99 197.74 279.99 197.76 280.01 197.75C282.39 197.01 284.8 196.65 287.29 196.64C287.61 196.64 287.93 196.66 288.25 196.68C285.74 196.98 283.22 197.7 280.7 198.11L284.8 198.11C285.66 197.97 286.48 197.9 287.28 197.87C286.96 197.95 286.65 198.03 286.33 198.11L297.52 198.11C297.63 197.62 297.52 197.19 297.12 196.92Z" fill="#EBDBC2"/>
<path d="M247.49 168.24C246.86 169.96 244.62 173.8 244.58 176.3C244.53 179.35 246.38 181.97 247.96 184.42C248.1 184.63 248.47 184.5 248.39 184.24C247.61 181.83 246.29 179.3 246.74 176.74C246.79 177.11 246.86 177.47 246.92 177.82C247.22 179.61 247.63 181.31 248.64 182.83C248.65 182.84 248.67 182.83 248.66 182.82C247.9 181.36 247.64 179.83 247.6 178.2C248.06 180.24 248.72 182.2 249.49 184.14C249.5 184.15 249.52 184.15 249.51 184.13C248.96 181.99 248.61 179.81 248.47 177.6C248.45 177.25 248.45 176.9 248.46 176.54C248.46 176.57 248.47 176.6 248.47 176.62C248.81 179.13 249.39 181.55 250.34 183.89C250.37 183.96 250.49 183.96 250.48 183.87C250.17 181.43 249.91 179.03 249.71 176.62C250.14 178.15 250.8 179.68 250.54 181.25C250.54 181.27 250.56 181.27 250.56 181.26C250.78 180.2 250.57 179.23 250.41 178.17C250.32 177.6 250.25 177.01 250.17 176.43C251.04 178.74 251.13 181.05 251.33 183.5C251.33 183.51 251.35 183.52 251.35 183.5C251.45 181.31 251.76 179.02 251.27 176.85C251.13 176.22 251 175.51 250.83 174.79C250.96 175.1 251.09 175.42 251.19 175.74C251.96 178.23 252.11 180.85 252.32 183.43C252.32 183.45 252.36 183.46 252.37 183.44C252.64 181.55 252.92 178.83 252.67 176.27C253.53 178.44 253.71 180.56 253.36 182.9C253.36 182.93 253.4 182.94 253.41 182.91C253.96 181.14 253.99 179.29 253.74 177.46C254.3 179.32 254.45 181.19 254.08 183.17C254.08 183.19 254.1 183.19 254.1 183.18C254.98 181.03 255.15 178.66 254.59 176.41C254.66 176.57 254.75 176.72 254.81 176.89C255.49 178.78 255.5 180.72 255.02 182.66C255.02 182.67 255.04 182.68 255.04 182.67C255.82 180.71 256.18 177.57 255.38 175.15C256.61 177.24 256.39 180.1 255.92 182.41C255.91 182.48 256.01 182.54 256.05 182.46C257.21 179.98 257.85 176.83 256.7 174.21C255.53 171.55 252 169.9 249.72 168.37C248.96 167.89 247.69 167.68 247.49 168.24Z" fill="#EBDBC2"/>
<path d="M280.51 190.15C282.05 186.96 282.16 182.55 282.16 179.08C282.16 177.62 280.49 176.44 276.95 178.44C275.25 178.88 273.59 179.85 272.45 180.88C270.32 182.8 269.07 185.59 269.27 188.45C269.27 188.48 269.31 188.48 269.32 188.46C270 186.14 271.06 183.99 272.89 182.43C271.52 184.2 270.57 186.19 270.13 188.38C270.13 188.4 270.15 188.4 270.15 188.39C271.13 185.68 272.99 182.95 275.55 181.45C275.1 181.91 274.68 182.42 274.29 182.97C272.86 184.5 271.74 186.5 270.93 188.13C270.92 188.14 270.94 188.16 270.95 188.14C271.52 187.01 272.24 185.95 273.04 184.97C272.16 186.54 271.4 188.17 270.6 189.48C270.59 189.5 270.62 189.53 270.64 189.51C271.89 188.19 272.91 186.7 274.04 185.29C273.32 186.76 272.76 188.29 272.23 189.22C272.22 189.24 272.25 189.27 272.27 189.25C273.33 187.93 274.17 186.45 275.21 185.11C275.54 184.69 275.91 184.33 276.3 184C276.2 184.17 276.1 184.34 276.01 184.5C274.69 186.77 273.81 189.34 271.47 190.8C271.43 190.82 271.46 190.88 271.51 190.86C273.59 189.98 274.82 188.26 276.16 186.52C276.43 186.18 276.71 185.84 276.98 185.5C276.95 185.59 276.91 185.7 276.88 185.78C275.91 187.93 274.44 189.81 272.72 191.41C272.71 191.42 272.72 191.44 272.73 191.43C274.97 189.92 276.97 187.94 278.42 185.64C278.31 185.86 278.2 186.06 278.11 186.22C276.95 188.5 275.41 190.44 273.67 192.29C273.57 192.39 273.7 192.58 273.83 192.49C275.86 191.04 277.6 189.18 278.96 187.09C278.24 189.53 276.72 191.55 274.51 192.86C274.5 192.87 274.51 192.89 274.52 192.88C276.31 192.16 278.18 190.8 279.44 189.08C279.43 189.14 279.42 189.2 279.4 189.26C278.86 190.92 277.41 192.13 275.76 192.6C275.74 192.6 275.75 192.63 275.77 192.62C277.22 192.37 278.51 191.7 279.42 190.58C279.4 190.62 279.39 190.65 279.37 190.69C278.41 192.27 276.55 192.83 274.93 193.35C274.9 193.36 274.91 193.4 274.94 193.4C277.19 192.97 279.43 192.39 280.51 190.15Z" fill="#EBDBC2"/>
<path d="M268.89 171.02C268.86 170.99 268.82 170.96 268.78 170.94C268.68 170.76 266.49 168.22 259.93 175.59C258.2 177.54 258.26 180.23 259.17 182.63C259.26 182.87 259.62 182.84 259.63 182.57C259.72 180.03 260.09 177.95 261.7 176.35C260.69 178.12 260.18 180.36 260 182.03C260 182.04 260.02 182.05 260.02 182.03C260.28 180.42 260.89 178.89 261.77 177.52C261.92 177.28 262.1 177.07 262.28 176.85C261.31 178.82 260.75 181.04 260.61 183.04C260.61 183.05 260.63 183.06 260.63 183.04C261.23 181.21 261.96 179.46 262.97 177.83C262.45 179.1 262.06 180.41 261.67 181.73C261.67 181.74 261.69 181.75 261.69 181.74C262.28 180.5 262.88 179.26 263.49 178.04C263.5 178.02 263.51 178 263.52 177.98C262.92 179.8 262.5 181.66 261.34 183.26C261.33 183.27 261.35 183.28 261.36 183.27C262.83 181.87 263.6 180.1 264.46 178.29C264.58 178.03 264.7 177.78 264.83 177.52C264.8 177.76 264.76 177.99 264.72 178.21C264.28 180.24 263.69 182.3 262.13 183.76C262.12 183.77 262.13 183.79 262.15 183.78C263.65 182.68 264.6 181.2 265.34 179.51C265.55 179.04 265.8 178.49 266.03 177.89C265.99 178.13 265.95 178.38 265.89 178.62C265.39 180.79 264.59 182.69 262.95 184.23C262.92 184.26 262.96 184.31 262.99 184.29C264.69 183.09 265.81 181.47 266.57 179.54C266.71 179.19 266.85 178.8 267 178.41C266.94 178.85 266.87 179.28 266.75 179.7C266.26 181.44 265.41 183.06 264.14 184.37C264.13 184.38 264.15 184.4 264.16 184.39C265.18 183.48 266.21 182.16 266.96 180.7C266.45 182.37 265.61 183.9 264.47 185.27C264.46 185.28 264.48 185.3 264.49 185.29C265.65 184.21 266.93 182.48 267.78 180.59C267.37 182.47 266.56 184.19 265.29 185.66C265.28 185.67 265.3 185.69 265.31 185.68C266.44 184.59 267.62 183.06 268.37 181.39C267.92 183.29 267 185.07 265.76 186.58C265.73 186.62 265.77 186.69 265.82 186.65C268.15 184.9 269.53 182.4 270.15 179.57C270.71 177.1 270.81 172.92 268.89 171.02Z" fill="#EBDBC2"/>
<path d="M253.64 161.26C251.02 159.81 247.86 159.81 245.16 160.99C242.81 162.02 240.71 163.95 239.77 166.57C238.46 170.2 239.86 173.22 241.86 176.12C241.89 176.17 241.97 176.12 241.94 176.07C238.68 170.84 240.32 164.24 246.04 162.45C248.22 161.77 250.63 161.92 252.62 163.16C252.98 163.38 253.29 163.63 253.57 163.9C251.17 162.82 248.27 162.63 246.25 163.27C241.77 164.7 239.47 169.46 241.64 174.15C241.65 174.16 241.67 174.15 241.66 174.14C239.2 168.68 243.21 163.58 248.33 163.44C250.42 163.38 256.48 165.19 257.35 170C257.45 170.54 258.48 170.23 258.57 169.65C258.67 168.98 258.64 168.31 258.5 167.64C260.56 162.47 265.34 159.2 270.37 162.8C271.33 163.49 272.26 164.43 272.92 165.52C271.61 163.87 269.74 162.67 267.87 162.2C263.49 161.09 261.03 164.11 258.93 167.85C258.92 167.86 258.94 167.88 258.95 167.86C261.02 164.51 263.67 161.57 267.73 162.74C271.59 163.86 272.6 167.25 273.54 170.97C273.46 171.9 273.62 172.71 274.71 172.66C275.23 172.64 275.61 172.33 275.84 171.87C286.22 169.27 293.16 176.85 299.25 185.63C299.65 186.2 300.35 187.43 301.24 188.92C299.02 186.33 296.85 183.68 294.45 181.27C289.18 175.96 283.44 171.44 275.95 172.58C275.92 172.58 275.93 172.63 275.96 172.63C285.29 171.37 291.63 179.66 297.02 186.66C299.37 189.71 301.66 192.83 304.25 195.65C304.91 196.36 305.64 197.29 306.46 198.12L310.61 198.12C310.61 196.95 309.84 195.85 309.66 195.68C308.17 194.26 306.96 192.38 305.76 190.68C302.75 186.42 299.88 182.03 296.46 178.14C291.26 172.22 283.33 166.51 276.14 170.91C277.48 165.39 273.39 160.44 268.49 159.38C262.91 158.17 259.62 161.82 258.27 166.82C257.49 164.45 255.5 162.3 253.64 161.26Z" fill="#EBDBC2"/>
<path d="M-0.000122072 188.65C0.659878 188.85 1.30985 189.06 1.96985 189.25C1.30985 189.05 0.659878 188.83 -0.00012207 188.62L-0.000122072 188.65Z" fill="#EBDBC2"/>
<path d="M-0.00012207 193.06L-0.000122111 193.98C3.50988 194.53 6.99988 195.01 11.9999 195.51L11.9999 195.41C7.99988 194.74 3.73988 193.96 -0.00012207 193.06Z" fill="#EBDBC2"/>
<path d="M19.5299 193.05C19.5999 193.06 19.6199 192.96 19.5399 192.95C18.3699 192.82 17.2099 192.65 16.0599 192.48C17.2099 192.69 18.3699 192.88 19.5299 193.05Z" fill="#EBDBC2"/>
<path d="M16.0598 192.48C11.2598 191.64 6.55981 190.56 1.95981 189.25C6.57981 190.66 11.2798 191.76 16.0598 192.48Z" fill="#EBDBC2"/>
<path d="M89.3498 145.17C87.3698 141.41 83.1698 141.41 82.0698 143.23C78.7398 142.44 78.5498 146.15 78.4098 146.23C76.1898 147.42 76.3098 150.21 76.2198 152.47C76.0098 158.1 76.0298 163.15 71.6798 167.35C71.6698 167.36 71.6898 167.38 71.6998 167.37C74.0498 165.36 75.6298 163.04 76.4798 160.05C76.6398 159.47 77.0598 156.59 77.5398 153.8C77.5598 154 77.5798 154.21 77.5698 154.41C77.5598 155.89 77.2698 157.34 77.0198 158.79C77.0198 158.81 77.0398 158.81 77.0398 158.8C77.5398 157.39 78.5998 154.88 78.5698 152.88C78.6498 152.56 78.7298 152.24 78.7898 151.93C78.8098 152.44 78.8198 152.89 78.7998 153.27C78.2298 164.19 70.9598 171.03 62.4498 176.69C62.4398 176.7 62.4498 176.72 62.4598 176.71C67.1198 173.68 72.0498 170.6 75.2198 165.89C76.8798 163.42 77.9898 160.51 78.9598 157.71C79.4598 156.27 79.8898 154.86 80.0998 153.35C80.1698 152.89 80.2198 150.57 80.6298 148.64C80.4798 150.93 80.5198 153.34 80.2198 154.83C77.8198 166.46 69.1198 175.56 57.9898 179.3C57.9698 179.31 57.9798 179.33 57.9998 179.32C64.9998 177.11 71.1498 173.14 75.5998 167.22C77.9598 164.07 79.7798 160.51 80.9598 156.75C81.4798 155.11 81.8698 153.42 82.1198 151.71C82.1698 151.37 82.1898 151.01 82.2098 150.64C82.1798 152.87 81.7298 155.03 81.0698 157.21C79.4998 162.36 76.6598 166.84 72.9498 170.71C72.9398 170.72 72.9598 170.74 72.9698 170.73C77.0298 166.72 80.1898 162.06 82.1498 156.68C82.4098 155.97 82.7698 155.07 83.1198 154.08C82.0498 159.32 78.9498 164.61 76.1298 168.15C71.0898 174.46 64.1298 178.83 56.2398 180.58C56.2198 180.58 56.2298 180.61 56.2498 180.6C64.9698 178.74 72.6098 173.99 77.9998 166.85C81.2398 162.56 84.5398 156.3 84.7298 150.4C84.8098 151.14 84.8398 151.89 84.7598 152.67C84.5398 154.95 83.7798 157.11 82.9298 159.22C81.2698 163.33 78.9298 166.8 75.8998 170.04C75.8898 170.05 75.9098 170.07 75.9198 170.06C79.6198 166.38 82.7398 162.16 84.7598 157.33C83.8498 160.96 81.9798 164.36 79.0698 167.67C73.8598 173.59 67.4598 178.04 59.8798 180.25C59.8598 180.25 59.8698 180.28 59.8898 180.27C68.9298 177.78 77.1598 171.94 82.8198 164.42C84.0598 162.78 86.4298 158.81 87.8698 154.78C87.6998 155.45 87.4898 156.14 87.2098 156.87C86.1598 159.66 84.9298 162.43 83.2598 164.9C79.8098 170.01 74.6698 173.74 69.4298 176.84C69.4198 176.85 69.4298 176.87 69.4398 176.86C77.3598 172.31 83.1498 167.12 87.3098 158.9C87.7798 157.98 88.4098 156.49 88.9398 154.81C88.7198 155.82 88.4498 156.81 88.1198 157.77C87.0598 160.92 85.4298 163.79 83.4098 166.41C79.2498 171.83 73.6298 175.84 67.2798 178.29C67.2698 178.3 67.2698 178.32 67.2898 178.31C76.7598 174.89 85.0498 168.26 88.7898 158.69C89.1598 157.75 89.5398 156.67 89.8698 155.52C89.5598 161.54 84.7198 167 80.6798 170.95C80.6698 170.96 80.6898 170.98 80.6998 170.97C83.8598 168.1 86.8598 165.11 88.9798 161.36C89.1898 160.99 89.5298 160.4 89.8898 159.7C88.6798 163.31 85.8698 166.92 83.7498 169.02C80.2498 172.49 75.7998 174.93 71.4398 177.16C71.4298 177.17 71.4398 177.19 71.4498 177.18C77.1598 174.31 82.8798 171.15 87.1698 166.31C88.5998 164.69 90.3598 162.42 91.4898 160.01C90.7598 162.91 88.5298 165.88 86.9198 167.55C84.3098 170.25 81.0698 172.23 77.8798 174.15C77.8698 174.16 77.8798 174.18 77.8898 174.17C82.4098 171.66 86.9698 168.96 90.2098 164.83C90.6598 164.26 91.1398 163.57 91.5998 162.83C91.5198 162.99 91.4498 163.13 91.3898 163.24C90.1798 165.45 88.4598 167.38 86.5798 169.05C82.7798 172.43 78.1198 174.67 73.5398 176.79C73.5298 176.8 73.5398 176.82 73.5498 176.81C81.3398 173.33 89.8798 169.29 93.3098 160.87C94.4398 158.11 94.6398 151.58 90.5698 152.15C90.9098 149.64 90.4498 147.26 89.3498 145.17Z" fill="#EBDBC2"/>
<path d="M-9.15846e-05 127.94C0.289908 127.7 0.589883 127.46 0.879883 127.21C0.589883 127.45 0.289908 127.67 -9.15829e-05 127.9L-9.15846e-05 127.94Z" fill="#EBDBC2"/>
<path d="M-0.000159782 126.12L-0.000159783 126.15C9.76984 118.32 16.0798 107.57 21.4798 96.3601C24.5398 90.0101 26.6798 83.5201 28.5698 76.7301C29.6998 72.6701 30.8098 67.2101 32.6598 62.4101C30.8698 68.1101 30.2598 74.6001 28.9098 79.3701C27.2198 85.3101 25.2398 91.1901 22.7598 96.8501C17.7198 108.35 10.3498 119.02 0.889824 127.2C9.49983 120.17 16.5098 111.38 21.8498 100.85C24.9098 94.8101 27.3098 88.4801 29.3798 82.0401C30.6098 78.2001 31.5398 74.3101 32.4898 70.3801C33.2598 67.2101 34.1398 64.1001 35.6398 61.1701C37.2898 57.9501 40.0798 55.5301 41.4898 52.2501C41.4898 52.2401 41.4898 52.2301 41.4998 52.2201C41.5698 52.0701 41.5998 51.9001 41.5598 51.7501C41.0798 50.1601 34.5198 46.4201 28.9198 51.0401C26.3098 53.1901 25.3698 56.1201 24.9098 59.9301C24.9098 59.9401 24.9298 59.9501 24.9298 59.9401C25.9198 57.6801 27.0698 55.3301 28.8598 53.5901C29.2998 53.1601 29.9198 52.7201 30.6398 52.3101C30.0598 52.8201 29.5198 53.3801 29.0398 53.9901C25.7198 58.1201 24.6098 63.2901 24.2198 68.4401C22.7998 75.2401 22.5198 82.2801 20.2598 88.9401C20.2398 89.0001 20.3298 89.0201 20.3598 88.9701C22.4998 83.5501 23.5998 77.8901 25.4998 72.4001C26.1298 70.5801 26.9898 67.7501 28.1498 64.9101C27.4298 67.2601 26.8698 69.5401 26.3998 71.3401C23.9498 80.7301 21.7698 89.7301 17.1198 98.3601C17.1098 98.3701 17.1298 98.3901 17.1398 98.3701C21.4498 90.7801 24.2298 82.8501 26.9598 74.6501C26.5798 76.3701 26.2998 77.7201 26.1198 78.3801C22.2298 92.7101 15.4598 106.22 6.61984 118.13C6.60984 118.14 6.62983 118.16 6.63982 118.14C13.4098 109.16 19.0098 99.5601 23.2498 89.1301C25.0898 84.6001 26.5998 80.0001 27.9898 75.3401C26.7598 80.3001 25.5598 85.2701 23.7198 90.0501C18.6098 103.29 11.2698 117.12 -0.000159782 126.12ZM24.2998 68.0101C24.5498 65.0801 25.6198 61.9701 27.1098 59.2801C26.3398 60.9401 25.7498 62.6401 25.2898 64.1201C24.8998 65.4101 24.5798 66.7001 24.2998 68.0101Z" fill="#EBDBC2"/>
<path d="M105.87 42.01C104.73 42.98 103.94 44.3 102.89 45.4C97.7699 50.77 100.54 60.06 102.17 61.41C102.32 61.54 102.57 61.4 102.54 61.2C102.35 59.9 105.94 57.28 107.37 57.5C108.9 57.73 110.34 58.22 111.84 58.57C113.08 58.86 114.29 58.96 115.53 58.61C116.81 58.26 117.9 57.54 119.11 57.1C119.45 59.69 121.56 62.22 124.07 62.84C125.82 63.27 127.37 62.58 129.11 62.55C131.24 62.51 133.06 63.61 134.62 64.99C137.98 67.99 140.66 71.8501 143.04 75.6501C144.6 78.1501 146.06 80.7401 147.35 83.4101C147.45 83.4901 147.54 83.57 147.64 83.6501C145 77.48 141.78 71.6701 137.63 66.2601C135.64 63.6701 133.31 61.46 130.51 59.79C129.23 59.02 127.28 58.94 126.2 57.91C125.89 57.62 125.7 57.28 125.57 56.91C125.8 56.94 126.03 56.97 126.25 57.02C129.16 57.62 131.73 59.48 134.01 61.3C134.03 61.32 134.06 61.28 134.04 61.26C131.69 59.05 129.36 56.77 126.33 55.51C126.11 55.42 125.86 55.32 125.58 55.22C126.4 55.34 127.38 55.82 128.03 56.08C130.19 56.94 132.01 58.32 133.69 59.91C137.41 63.4 140.17 67.83 142.64 72.25C142.65 72.27 142.69 72.2501 142.68 72.2301C139.92 67.1401 137.41 61.84 133.37 57.6C130.98 55.09 125.76 49.44 121.83 51.42C121.08 51.8 120.49 52.42 120.33 53.22C120.19 53.35 120.05 53.49 119.93 53.66C119.65 54.05 119.45 54.46 119.31 54.89C118.5 54.97 117.66 54.8 116.81 54.25C116.21 53.87 115.71 53.37 115.22 52.85C116.34 53.09 117.46 53.32 118.56 53.55C118.63 53.57 118.69 53.46 118.61 53.42C118.14 53.19 117.64 52.98 117.14 52.78C117.77 52.75 118.39 52.67 118.98 52.52C119.07 52.5 119.07 52.35 118.98 52.32C117.38 51.8 115.75 51.53 114.18 50.93C116.32 51.45 118.56 51.61 120.45 50.98C120.51 50.96 120.5 50.86 120.43 50.86C119.22 50.95 118.09 50.86 116.97 50.66C118.77 50.47 120.56 50.21 122.28 49.91C122.31 49.91 122.3 49.87 122.28 49.87C119.81 49.92 117.16 49.95 114.74 49.36C114.54 49.31 114.33 49.25 114.13 49.2C116.93 48.54 119.56 48.48 122.41 48.65C122.45 48.65 122.46 48.59 122.42 48.58C121.6 48.34 120.59 48.08 119.5 47.85C123.23 48.13 126.88 49.8 129.35 52.64C129.37 52.66 129.4 52.64 129.39 52.61C126.7 49.49 123.28 47.62 119.22 46.92C117.56 46.64 115.67 46.5 113.78 46.61C114.89 46.18 116.07 45.93 117.28 45.87C121.68 45.64 125.82 47.71 129.03 50.57C135.88 56.68 141.13 65.7801 144.17 74.36C144.18 74.39 144.22 74.37 144.21 74.34C140.52 64.76 135.5 54.21 127.04 47.93C123.68 45.44 119.71 43.88 115.47 44.12C114.22 44.19 112.75 44.52 111.33 45.07C111.35 45.01 111.36 44.95 111.38 44.89C111.85 44.73 112.33 44.57 112.81 44.42C115.92 43.48 118.41 43.43 121.59 44.08C121.6 44.08 121.61 44.06 121.6 44.06C120.11 43.34 118.28 42.74 116.38 42.4C116.42 42.39 116.46 42.38 116.5 42.37C116.9 42.4 117.3 42.44 117.69 42.51C121.41 43.16 125.38 45.35 128.28 47.71C128.3 47.73 128.33 47.69 128.31 47.67C126.17 45.82 123.6 43.83 120.84 42.48C121.48 42.64 122.12 42.87 122.77 43.15C122.93 43.22 123.08 43.28 123.24 43.36C134.51 48.69 146.36 71.1701 150.8 87.0101C150.81 87.0301 150.83 87.05 150.84 87.06C148.29 77.38 141.99 58.9 131.39 48.1C135.71 51.43 139.09 55.69 141.71 60.89C141.72 60.9 141.74 60.89 141.73 60.88C138.77 54.08 133.22 45.32 126.17 40.28C136.93 45.42 146.2 64.12 153.11 90.52C153.47 91.17 153.82 91.84 154.13 92.53C151.7 79.04 146.53 62.58 139.54 50.77C140.22 51.45 140.84 52.13 141.32 52.82C144.57 57.5 146.51 63.02 148.49 68.31C148.5 68.32 148.52 68.3201 148.51 68.3001C146.65 62.5501 144.72 56.84 141.98 51.43C141.86 51.2 141.74 50.95 141.61 50.7C142.56 52.29 143.41 53.95 144.2 55.53C147.16 61.48 150.31 68.4901 151.4 75.1101C151.41 75.1701 151.5 75.15 151.5 75.1C150.79 67.06 147.82 58.77 144.72 51.36C144.57 51 144.42 50.65 144.26 50.3C144.45 50.56 144.64 50.82 144.82 51.09C145.85 52.69 146.78 54.37 147.55 56.11C147.56 56.12 147.58 56.11 147.57 56.1C146.44 53.01 144.96 49.1 142.45 46.75C142 45.98 141.52 45.23 141.01 44.52C146.41 47.98 149.49 58.05 149.87 62.78C149.87 62.8 149.9 62.8 149.89 62.78C149.71 56.35 147.02 50.17 144.64 44.26C145.27 44.81 145.85 45.47 146.38 46.21C149.5 50.54 150.17 56.4 150.81 61.56C150.81 61.58 150.83 61.58 150.83 61.56C151.75 43.18 140.54 38.15 137.82 38.66C137.15 38.59 136.45 38.59 135.71 38.66C135.14 35.47 131.8 33.16 128.43 33.76C125.23 31.72 121.4 31.16 118.48 34.07C112.59 33.38 107.3 35.66 105.87 42.01ZM116.42 56.7C117.42 56.93 118.29 56.92 119.07 56.71C119.07 56.76 119.08 56.81 119.08 56.86C118.24 57.03 117.43 57.29 116.55 57.52C114.38 58.08 112.63 57.51 110.71 56.53C110.27 56.3 109.82 56.03 109.38 55.74C109.69 55.76 110.01 55.78 110.32 55.83C111.96 56.08 113.57 57.37 115.23 56.74C115.24 56.74 115.24 56.72 115.23 56.72C114.38 56.48 113.6 56.07 112.82 55.65C113.97 55.98 115.14 56.4 116.42 56.7Z" fill="#EBDBC2"/>
</g>
<defs>
<clipPath id="clip0_1_11555">
<rect width="198.12" height="310.61" fill="white" transform="translate(310.61) rotate(90)"/>
</clipPath>
</defs>
</svg>
