<svg width="65" height="66" viewBox="0 0 65 66" fill="none" xmlns="http://www.w3.org/2000/svg">
<g id="Layer 4">
<path id="Vector" d="M41.4182 29.3112C41.4182 36.8909 44.6574 42.8291 48.7935 42.8291C52.9297 42.8291 56.1689 36.8909 56.1689 29.3112C56.1689 21.7314 52.9297 15.7932 48.7935 15.7932C44.6574 15.7932 41.4182 21.7314 41.4182 29.3112ZM54.4093 29.3112C54.4093 35.6712 51.8377 41.0437 48.7935 41.0437C45.7494 41.0437 43.1778 35.6712 43.1778 29.3112C43.1778 22.9511 45.7494 17.5786 48.7935 17.5786C51.8377 17.5786 54.4093 22.9511 54.4093 29.3112Z" fill="white"/>
<path id="Vector_2" d="M63.4724 0H34.1167C33.8835 0.000270022 33.6599 0.0944081 33.4949 0.261762C33.33 0.429116 33.2372 0.656019 33.2369 0.892694V5.33066C33.2369 5.34596 33.242 5.36126 33.242 5.37657C33.2394 5.39005 33.2394 5.40389 33.242 5.41737L35.8211 31.9023H34.7854V31.0402C34.7844 30.0061 34.4302 29.0042 33.783 28.2052C33.1358 27.4063 32.2357 26.8596 31.236 26.6584C31.0842 23.2869 29.9621 20.0344 28.0083 17.303L25.8314 14.2576C25.7513 14.1452 25.6464 14.0534 25.525 13.9896C25.4037 13.9258 25.2692 13.8918 25.1326 13.8903C24.9953 13.884 24.8587 13.9123 24.7349 13.9729C24.6112 14.0334 24.5042 14.1243 24.4237 14.2372L21.8094 17.7008C20.9719 18.8022 19.8974 19.6946 18.6679 20.31C17.4384 20.9253 16.0865 21.2473 14.7155 21.2512C13.2302 21.2529 11.7959 21.8013 10.6789 22.7948C9.56199 23.7883 8.83833 25.1593 8.64231 26.6533C7.63487 26.8467 6.72553 27.3907 6.07113 28.1916C5.41674 28.9924 5.05831 29.9999 5.05769 31.0402V31.9023H3.87622C3.64296 31.9026 3.41933 31.9967 3.25439 32.1641C3.08945 32.3314 2.99667 32.5583 2.9964 32.795V38.6715H0.879818C0.764205 38.6712 0.649678 38.6941 0.542814 38.7389C0.43595 38.7837 0.338854 38.8494 0.257103 38.9324C0.175352 39.0153 0.110555 39.1138 0.0664342 39.2222C0.0223132 39.3307 -0.00026286 39.4469 2.30906e-06 39.5642V49.6287C0.00738088 55.1941 1.8418 60.5984 5.21354 64.9881C5.29519 65.0961 5.40024 65.1835 5.52055 65.2437C5.64086 65.3038 5.77321 65.3351 5.90734 65.335H33.9357C34.0699 65.3351 34.2022 65.3038 34.3225 65.2437C34.4428 65.1835 34.5479 65.0961 34.6295 64.9881C35.9677 63.2447 37.0717 61.3286 37.9125 59.2902V62.361C37.9134 63.1386 38.2183 63.8842 38.7602 64.434C39.3022 64.9839 40.0369 65.2932 40.8033 65.2942H56.6953C57.462 65.294 58.1972 64.985 58.7393 64.4349C59.2814 63.8849 59.586 63.1389 59.5861 62.361V53.6738C59.6326 53.5815 59.6616 53.4812 59.6716 53.378L64.3472 5.41737V5.37657C64.3472 5.36126 64.3522 5.34596 64.3522 5.33066V0.892694C64.352 0.656019 64.2592 0.429116 64.0942 0.261762C63.9293 0.0944081 63.7057 0.000270022 63.4724 0ZM6.81732 31.0402C6.81945 30.3289 7.0996 29.6474 7.5963 29.1453C8.09301 28.6433 8.7657 28.3616 9.46682 28.3622H16.9226C17.156 28.3622 17.3798 28.2681 17.5448 28.1007C17.7097 27.9333 17.8024 27.7062 17.8024 27.4695C17.8024 27.2327 17.7097 27.0056 17.5448 26.8382C17.3798 26.6708 17.156 26.5768 16.9226 26.5768H10.4371C10.6405 25.5776 11.1771 24.6801 11.9563 24.0353C12.7356 23.3905 13.71 23.0378 14.7155 23.0366C16.3558 23.0319 17.9733 22.6466 19.4442 21.9101C20.9151 21.1736 22.2005 20.1054 23.202 18.7874L25.1024 16.2776L26.5805 18.3538C28.3018 20.7557 29.3023 23.6113 29.4613 26.5768H27.762C27.5286 26.5768 27.3048 26.6708 27.1398 26.8382C26.9748 27.0056 26.8821 27.2327 26.8821 27.4695C26.8821 27.7062 26.9748 27.9333 27.1398 28.1007C27.3048 28.2681 27.5286 28.3622 27.762 28.3622H30.2053C30.2341 28.3613 30.2627 28.3579 30.2908 28.3519C30.3172 28.3579 30.3442 28.3613 30.3712 28.3622H30.3863C31.0859 28.3638 31.7563 28.6464 32.2509 29.1483C32.7456 29.6502 33.0242 30.3305 33.0258 31.0402V31.9023H6.81732V31.0402ZM4.75603 37.0697H15.4596C15.693 37.0697 15.9167 36.9757 16.0817 36.8083C16.2467 36.6409 16.3394 36.4138 16.3394 36.177C16.3394 35.9403 16.2467 35.7132 16.0817 35.5458C15.9167 35.3784 15.693 35.2844 15.4596 35.2844H4.75603V33.6877H35.0871V35.2844H24.3835C24.1501 35.2844 23.9263 35.3784 23.7613 35.5458C23.5963 35.7132 23.5037 35.9403 23.5037 36.177C23.5037 36.4138 23.5963 36.6409 23.7613 36.8083C23.9263 36.9757 24.1501 37.0697 24.3835 37.0697H35.0871V38.6715H4.75603V37.0697ZM38.0835 49.6287C38.0835 50.0929 38.0633 50.5673 38.0332 51.0417C38.0281 51.108 38.0282 51.1794 38.0231 51.2457C37.9879 51.7099 37.9427 52.1741 37.8824 52.6383C37.3676 56.5967 35.8579 60.3542 33.4984 63.5496H6.3397C3.37429 59.5314 1.7678 54.6485 1.75963 49.6287V40.4569H38.0835V49.6287ZM57.8265 62.361C57.8261 62.6653 57.7068 62.957 57.4948 63.1722C57.2827 63.3873 56.9952 63.5084 56.6953 63.5088H40.8033C40.5035 63.5084 40.216 63.3873 40.0039 63.1722C39.7919 62.957 39.6725 62.6653 39.6721 62.361V57.6884H57.8265V62.361ZM57.8265 55.903H39.6721V54.1839H57.8265V55.903ZM57.9975 52.3986H39.6872C39.6923 52.3373 39.6973 52.2812 39.7023 52.22C39.7375 51.8783 39.7677 51.5365 39.7878 51.1947C39.7928 51.0927 39.8029 50.9907 39.8079 50.8886C39.828 50.4703 39.8431 50.047 39.8431 49.6287V39.5642C39.8433 39.4469 39.8208 39.3307 39.7767 39.2222C39.7325 39.1138 39.6677 39.0153 39.586 38.9324C39.5042 38.8494 39.4071 38.7837 39.3003 38.7389C39.1934 38.6941 39.0789 38.6712 38.9633 38.6715H38.2494L35.0871 6.22335H62.5021L57.9975 52.3986ZM62.5926 4.43796H34.9966V1.78539H62.5926V4.43796Z" fill="white"/>
<path id="Vector_3" d="M27.757 48.6994C27.757 48.4626 27.6643 48.2356 27.4993 48.0681C27.3343 47.9007 27.1105 47.8067 26.8771 47.8067C25.5908 47.8032 24.3237 48.1241 23.19 48.7407C22.6699 47.2998 21.6692 46.089 20.3615 45.3183C20.2275 45.2395 20.0754 45.198 19.9206 45.198C19.7657 45.198 19.6136 45.2395 19.4796 45.3183C18.1722 46.0893 17.1721 47.3003 16.6527 48.7412C15.5189 48.1246 14.2518 47.8037 12.9655 47.8072C12.7321 47.8072 12.5083 47.9012 12.3433 48.0687C12.1783 48.2361 12.0857 48.4631 12.0857 48.6999V48.8193C12.0855 50.6092 12.684 52.3461 13.7835 53.7459C13.1329 54.1722 12.5915 54.7492 12.2038 55.4293C12.1264 55.5652 12.0856 55.7194 12.0856 55.8764C12.0856 56.0334 12.1264 56.1876 12.2038 56.3235C12.58 56.9855 13.1017 57.5503 13.7284 57.9739C14.3551 58.3976 15.0698 58.6687 15.8167 58.766C16.5636 58.8633 17.3226 58.7843 18.0344 58.535C18.7463 58.2857 19.3918 57.873 19.9206 57.329C20.4493 57.873 21.0948 58.2857 21.8066 58.5349C22.5185 58.7841 23.2774 58.8631 24.0243 58.7658C24.7712 58.6684 25.4858 58.3973 26.1124 57.9736C26.7391 57.5498 27.2607 56.985 27.6368 56.323C27.7143 56.1872 27.755 56.0331 27.755 55.8762C27.755 55.7193 27.7143 55.5651 27.6368 55.4293C27.2492 54.7492 26.708 54.1722 26.0577 53.7459C27.1575 52.3461 27.7566 50.609 27.757 48.8187V48.6994ZM23.5746 50.5832C24.2897 50.1095 25.0964 49.7964 25.9405 49.665C25.8021 50.6394 25.4378 51.5666 24.8775 52.3703C24.3173 53.1741 23.5772 53.8316 22.7179 54.2887C22.8129 54.2377 22.8918 53.9316 22.9341 53.8393C23.0652 53.5564 23.1793 53.2658 23.2759 52.969C23.5192 52.1992 23.6197 51.3903 23.5725 50.5832H23.5746ZM19.9206 47.1548C20.5097 47.5969 20.9885 48.1731 21.3184 48.8371C21.6483 49.501 21.8201 50.2342 21.8201 50.9778C21.8201 51.7214 21.6483 52.4546 21.3184 53.1185C20.9885 53.7825 20.5097 54.3587 19.9206 54.8008C19.3313 54.3587 18.8525 53.7825 18.5225 53.1186C18.1925 52.4546 18.0206 51.7214 18.0206 50.9778C18.0206 50.2342 18.1925 49.501 18.5225 48.837C18.8525 48.1731 19.3313 47.5969 19.9206 47.1548ZM16.2691 50.5832C16.2204 51.3845 16.3187 52.1879 16.5591 52.9527C16.6591 53.2717 16.7839 53.5821 16.9322 53.8811C17.0017 54.0119 17.0641 54.1464 17.1192 54.2841C16.2613 53.8267 15.5224 53.1695 14.9631 52.3665C14.4038 51.5634 14.04 50.6373 13.9016 49.664C14.7463 49.7956 15.5535 50.1091 16.2691 50.5832ZM16.4435 57.0198C15.9842 57.0187 15.5306 56.9157 15.1147 56.7178C14.6987 56.52 14.3305 56.2322 14.0358 55.8746C14.3182 55.5323 14.6685 55.2542 15.064 55.0585C15.9543 55.7684 16.984 56.2768 18.084 56.5495C17.5909 56.8568 17.0237 57.0196 16.445 57.0198H16.4435ZM23.3981 57.0198C22.8187 57.0193 22.2508 56.8556 21.7576 56.547C22.8576 56.2743 23.8874 55.7659 24.7776 55.0559C25.1732 55.2515 25.5235 55.5296 25.8058 55.8721C25.5114 56.2303 25.1432 56.5186 24.7271 56.7169C24.3111 56.9152 23.8573 57.0186 23.3976 57.0198H23.3981Z" fill="white"/>
<path id="Vector_4" d="M24.5142 26.5769H22.7486C22.5152 26.5769 22.2915 26.6709 22.1265 26.8383C21.9615 27.0057 21.8688 27.2327 21.8688 27.4694C21.8688 27.7061 21.9615 27.9331 22.1265 28.1004C22.2915 28.2678 22.5152 28.3618 22.7486 28.3618H24.5142C24.7476 28.3618 24.9714 28.2678 25.1364 28.1004C25.3013 27.9331 25.394 27.7061 25.394 27.4694C25.394 27.2327 25.3013 27.0057 25.1364 26.8383C24.9714 26.6709 24.7476 26.5769 24.5142 26.5769Z" fill="white"/>
</g>
</svg>
