<svg width="70" height="70" viewBox="0 0 70 70" fill="none" xmlns="http://www.w3.org/2000/svg">
<g id="manicure 1" clip-path="url(#clip0_1_11762)">
<g id="XMLID 1544">
<g id="Group">
<g id="Group_2">
<path id="Vector" d="M67.9808 60.6166L59.1917 53.76L46.5497 34.7328L50.7987 31.9285C50.7987 31.9285 52.1354 31.0898 51.2401 29.7412C50.0879 28.0057 34.3477 4.31696 34.3477 4.31696C33.0133 2.30912 30.2894 1.75627 28.2755 3.08583L24.8563 5.3426V4.37369C24.8563 1.96204 22.8899 0 20.4727 0H11.6969C9.27967 0 7.3131 1.96204 7.3131 4.37369V33.9466C3.08992 35.1977 0 39.1131 0 43.7364V65.5987C0 68.011 1.96263 69.9735 4.375 69.9735H27.7944C30.2068 69.9735 32.1694 68.011 32.1694 65.5987V43.7363C32.1694 39.1129 29.0795 35.1976 24.8563 33.9465V21.705L36.6822 39.5038C36.6823 39.5039 36.8843 39.7466 36.8843 39.7466C37.7504 40.5987 38.6973 39.9157 38.6976 39.9155C38.6982 39.9152 44.1156 36.3396 44.1156 36.3396L56.7623 55.3738L59.6655 66.1141C60.1099 67.7588 61.2808 69.0487 62.8774 69.6528C63.4916 69.8852 64.1258 70 64.755 70C65.7656 70 66.7632 69.7037 67.6432 69.123C69.0708 68.1807 69.9283 66.6619 69.9958 64.9556C70.0633 63.25 69.3289 61.6684 67.9808 60.6166ZM10.2298 4.37369C10.2298 3.57 10.8879 2.91637 11.6969 2.91637H20.4727C21.2816 2.91637 21.9398 3.57015 21.9398 4.37369V7.2676L20.9586 7.9151C19.9808 8.56056 19.314 9.54742 19.081 10.6938C18.8482 11.8389 19.0763 13.0059 19.7234 13.9797L21.9488 17.3291C21.9427 17.383 21.9396 17.438 21.9396 17.4936V33.5287H10.2298V4.37369ZM29.2527 43.7364V65.5989C29.2527 66.4029 28.5985 67.0571 27.7944 67.0571H4.375C3.57088 67.0571 2.91667 66.4029 2.91667 65.5989V43.7364C2.91667 39.716 6.18771 36.4452 10.2083 36.4452H21.961C25.9818 36.4452 29.2527 39.716 29.2527 43.7364ZM38.3069 36.6788L22.1527 12.3656C21.9377 12.042 21.8619 11.6546 21.939 11.2747C22.0166 10.8932 22.239 10.5645 22.5652 10.3492L29.8823 5.52008C30.1318 5.35544 30.4135 5.27669 30.6924 5.27669C31.1687 5.27669 31.6364 5.50681 31.9184 5.93119L48.0675 30.2368L38.3069 36.6788ZM67.0813 64.8404C67.0514 65.5967 66.6706 66.2705 66.0364 66.689C65.3993 67.1094 64.6237 67.1952 63.9094 66.9251C63.1991 66.6562 62.6784 66.0834 62.481 65.3532L60.656 58.6017L66.1868 62.9163C66.7853 63.3832 67.1113 64.0844 67.0813 64.8404Z" fill="white"/>
<path id="Vector_2" d="M19.0142 40.818C19.0142 41.6232 19.6672 42.2761 20.4725 42.2761C22.0879 42.2761 23.4021 43.5838 23.4021 45.1912V62.7048C23.4021 63.5101 24.0552 64.163 24.8605 64.163C25.6658 64.163 26.3188 63.5101 26.3188 62.7048V45.1912C26.3188 41.9756 23.6961 39.3596 20.4725 39.3596C19.6672 39.3596 19.0142 40.0125 19.0142 40.818Z" fill="white"/>
</g>
</g>
</g>
</g>
<defs>
<clipPath id="clip0_1_11762">
<rect width="70" height="70" fill="white"/>
</clipPath>
</defs>
</svg>
