<svg width="72" height="72" viewBox="0 0 72 72" fill="none" xmlns="http://www.w3.org/2000/svg">
<g id="nail-polish 1">
<g id="Group">
<path id="Vector" d="M12.4579 68.1108H1.05511C0.472267 68.1108 0 67.6386 0 67.0557C0 66.4729 0.472267 66.0006 1.05511 66.0006H12.4579C19.3825 66.0006 24.6301 65.1821 28.5003 63.4985C31.7608 62.08 34.1317 60.0522 35.8528 57.1854H23.3033C19.2669 57.1854 16.119 53.757 15.7036 49.0736H1.05511C0.472267 49.0736 0 48.6013 0 48.0184C0 47.4356 0.472267 46.9633 1.05511 46.9633H16.7121C21.8308 46.9633 26.3139 45.1604 29.6766 41.7491L37.4605 33.8354L32.8688 29.2126C32.623 28.9651 32.5154 28.6122 32.5812 28.2697C32.6472 27.9272 32.8781 27.6395 33.1981 27.5008C34.1836 27.0741 35.1172 26.6737 36.0063 26.2922C40.0787 24.5453 43.2954 23.1654 46.2611 21.4909C46.7685 21.2049 47.4123 21.3835 47.6987 21.891C47.9851 22.3984 47.8062 23.042 47.2986 23.3286C44.233 25.0595 40.9698 26.4593 36.8384 28.2316C36.3898 28.4241 35.9297 28.6214 35.4576 28.8244L47.0132 40.4584C51.9557 29.0986 54.6572 23.7738 63.6451 14.7859L69.3619 9.06913C69.7235 8.70744 69.9152 8.2069 69.8875 7.69566C69.8595 7.17767 69.6184 6.71089 69.2086 6.38113C68.5063 5.81644 67.4286 5.90197 66.7547 6.57598L61.038 12.2927C57.1397 16.1908 54.0523 18.8711 51.0271 20.9833C50.549 21.3171 49.8914 21.2001 49.558 20.7223C49.2244 20.2446 49.3413 19.5867 49.8189 19.2532C52.7389 17.2146 55.7386 14.6078 59.5456 10.8006L65.2621 5.08349C66.7109 3.63503 68.9759 3.48605 70.5307 4.73671C71.401 5.4366 71.9344 6.47356 71.9942 7.58157C72.0542 8.69028 71.6386 9.77634 70.8539 10.5611L65.1369 16.2779C56.0542 25.3607 53.5668 30.6308 48.3294 42.7253C48.1902 43.0465 47.9009 43.2779 47.5569 43.3429C47.2134 43.4073 46.8591 43.298 46.6125 43.0496L41.9215 38.3268C40.6794 39.5853 37.6709 42.628 34.1185 46.1806C33.8489 46.45 33.5879 46.7109 33.3354 46.9633H41.6707C42.9976 46.9633 44.0771 48.0417 44.0777 49.367C44.0783 51.3232 43.5589 53.1636 42.6155 54.5494C41.5687 56.0868 40.0807 56.978 38.2842 57.1533C34.324 64.8255 26.5476 68.1108 12.4579 68.1108ZM17.825 49.0461C18.1731 52.113 20.0823 55.075 23.3032 55.075H37.5933C37.6075 55.0747 37.6216 55.0747 37.6358 55.075C39.0126 55.0692 40.1009 54.4927 40.8713 53.3615C41.5685 52.3376 41.9681 50.8819 41.9676 49.3674C41.9676 49.2054 41.8344 49.0733 41.6708 49.0733H31.2238C28.5749 51.7191 27.3369 52.95 27.321 52.9658C26.9078 53.3769 26.2397 53.3749 25.829 52.9616C25.418 52.5482 25.42 51.8801 25.8332 51.4695C25.853 51.4498 27.7484 49.5651 31.8802 45.4343L30.4122 43.9661C27.0316 47.0325 22.6308 48.8086 17.825 49.0461ZM31.914 42.4836L33.3723 43.9419C36.6064 40.7034 39.2909 37.9881 40.4345 36.8294L38.9478 35.3324L31.914 42.4836Z" fill="white"/>
</g>
</g>
</svg>
