<svg width="130" height="19" viewBox="0 0 130 19" fill="none" xmlns="http://www.w3.org/2000/svg">
<path d="M3.472 14.16L3.256 9.672L11.296 1.2H15.616L8.368 9L6.208 11.304L3.472 14.16ZM-0.0079999 18V1.2H3.856V18H-0.0079999ZM11.488 18L5.512 10.68L8.056 7.92L16.024 18H11.488ZM17.8576 18V1.2H21.0736L28.2256 13.056H26.5216L33.5536 1.2H36.7456L36.7936 18H33.1456L33.1216 6.792H33.7936L28.1776 16.224H26.4256L20.6896 6.792H21.5056V18H17.8576ZM48.5355 18V15.48L48.2955 14.928V10.416C48.2955 9.616 48.0475 8.992 47.5515 8.544C47.0715 8.096 46.3275 7.872 45.3195 7.872C44.6315 7.872 43.9515 7.984 43.2795 8.208C42.6235 8.416 42.0635 8.704 41.5995 9.072L40.2555 6.456C40.9595 5.96 41.8075 5.576 42.7995 5.304C43.7915 5.032 44.7995 4.896 45.8235 4.896C47.7915 4.896 49.3195 5.36 50.4075 6.288C51.4955 7.216 52.0395 8.664 52.0395 10.632V18H48.5355ZM44.5995 18.192C43.5915 18.192 42.7275 18.024 42.0075 17.688C41.2875 17.336 40.7355 16.864 40.3515 16.272C39.9675 15.68 39.7755 15.016 39.7755 14.28C39.7755 13.512 39.9595 12.84 40.3275 12.264C40.7115 11.688 41.3115 11.24 42.1275 10.92C42.9435 10.584 44.0075 10.416 45.3195 10.416H48.7515V12.6H45.7275C44.8475 12.6 44.2395 12.744 43.9035 13.032C43.5835 13.32 43.4235 13.68 43.4235 14.112C43.4235 14.592 43.6075 14.976 43.9755 15.264C44.3595 15.536 44.8795 15.672 45.5355 15.672C46.1595 15.672 46.7195 15.528 47.2155 15.24C47.7115 14.936 48.0715 14.496 48.2955 13.92L48.8715 15.648C48.5995 16.48 48.1035 17.112 47.3835 17.544C46.6635 17.976 45.7355 18.192 44.5995 18.192ZM55.528 18V5.088H59.104V8.736L58.6 7.68C58.984 6.768 59.6 6.08 60.448 5.616C61.296 5.136 62.328 4.896 63.544 4.896V8.352C63.384 8.336 63.24 8.328 63.112 8.328C62.984 8.312 62.848 8.304 62.704 8.304C61.68 8.304 60.848 8.6 60.208 9.192C59.584 9.768 59.272 10.672 59.272 11.904V18H55.528ZM68.9896 15.36L69.0856 10.8L75.1096 5.088H79.5736L73.7896 10.968L71.8456 12.552L68.9896 15.36ZM65.8936 18V0.191999H69.6376V18H65.8936ZM75.5176 18L71.1496 12.576L73.5016 9.672L80.0536 18H75.5176ZM87.7063 18.192C86.2343 18.192 84.9383 17.904 83.8183 17.328C82.7143 16.752 81.8583 15.968 81.2503 14.976C80.6423 13.968 80.3383 12.824 80.3383 11.544C80.3383 10.248 80.6343 9.104 81.2263 8.112C81.8343 7.104 82.6583 6.32 83.6983 5.76C84.7383 5.184 85.9143 4.896 87.2263 4.896C88.4903 4.896 89.6263 5.168 90.6343 5.712C91.6583 6.24 92.4663 7.008 93.0583 8.016C93.6503 9.008 93.9463 10.2 93.9463 11.592C93.9463 11.736 93.9383 11.904 93.9223 12.096C93.9063 12.272 93.8903 12.44 93.8743 12.6H83.3863V10.416H91.9063L90.4663 11.064C90.4663 10.392 90.3303 9.808 90.0583 9.312C89.7863 8.816 89.4103 8.432 88.9303 8.16C88.4503 7.872 87.8903 7.728 87.2503 7.728C86.6103 7.728 86.0423 7.872 85.5463 8.16C85.0663 8.432 84.6903 8.824 84.4183 9.336C84.1463 9.832 84.0103 10.424 84.0103 11.112V11.688C84.0103 12.392 84.1623 13.016 84.4663 13.56C84.7863 14.088 85.2263 14.496 85.7863 14.784C86.3623 15.056 87.0343 15.192 87.8023 15.192C88.4903 15.192 89.0903 15.088 89.6023 14.88C90.1303 14.672 90.6103 14.36 91.0423 13.944L93.0343 16.104C92.4423 16.776 91.6983 17.296 90.8023 17.664C89.9063 18.016 88.8743 18.192 87.7063 18.192ZM101.819 18.192C100.299 18.192 99.1149 17.808 98.2669 17.04C97.4189 16.256 96.9949 15.096 96.9949 13.56V2.232H100.739V13.512C100.739 14.056 100.883 14.48 101.171 14.784C101.459 15.072 101.851 15.216 102.347 15.216C102.939 15.216 103.443 15.056 103.859 14.736L104.867 17.376C104.483 17.648 104.019 17.856 103.475 18C102.947 18.128 102.395 18.192 101.819 18.192ZM95.0029 8.256V5.376H103.955V8.256H95.0029ZM113.078 18.192C111.606 18.192 110.31 17.904 109.19 17.328C108.086 16.752 107.23 15.968 106.622 14.976C106.014 13.968 105.71 12.824 105.71 11.544C105.71 10.248 106.006 9.104 106.598 8.112C107.206 7.104 108.03 6.32 109.07 5.76C110.11 5.184 111.286 4.896 112.598 4.896C113.862 4.896 114.998 5.168 116.006 5.712C117.03 6.24 117.838 7.008 118.43 8.016C119.022 9.008 119.318 10.2 119.318 11.592C119.318 11.736 119.31 11.904 119.294 12.096C119.278 12.272 119.262 12.44 119.246 12.6H108.758V10.416H117.278L115.838 11.064C115.838 10.392 115.702 9.808 115.43 9.312C115.158 8.816 114.782 8.432 114.302 8.16C113.822 7.872 113.262 7.728 112.622 7.728C111.982 7.728 111.414 7.872 110.918 8.16C110.438 8.432 110.062 8.824 109.79 9.336C109.518 9.832 109.382 10.424 109.382 11.112V11.688C109.382 12.392 109.534 13.016 109.838 13.56C110.158 14.088 110.598 14.496 111.158 14.784C111.734 15.056 112.406 15.192 113.174 15.192C113.862 15.192 114.462 15.088 114.974 14.88C115.502 14.672 115.982 14.36 116.414 13.944L118.406 16.104C117.814 16.776 117.07 17.296 116.174 17.664C115.278 18.016 114.246 18.192 113.078 18.192ZM121.911 18V5.088H125.487V8.736L124.983 7.68C125.367 6.768 125.983 6.08 126.831 5.616C127.679 5.136 128.711 4.896 129.927 4.896V8.352C129.767 8.336 129.623 8.328 129.495 8.328C129.367 8.312 129.231 8.304 129.087 8.304C128.063 8.304 127.231 8.6 126.591 9.192C125.967 9.768 125.655 10.672 125.655 11.904V18H121.911Z" fill="white"/>
</svg>
